<svg version="1.1" xmlns="http://www.w3.org/2000/svg" xmlns:xlink="http://www.w3.org/1999/xlink" width="8.7501" height="12.9844" viewBox="0,0,8.7501,12.9844"><g transform="translate(-235.62495,-173.5078)"><g data-paper-data="{&quot;isPaintingLayer&quot;:true}" fill="#ff0000" fill-rule="nonzero" stroke="none" stroke-width="1" stroke-linecap="square" stroke-linejoin="miter" stroke-miterlimit="10" stroke-dasharray="" stroke-dashoffset="0" style="mix-blend-mode: normal"><path d="M235.62495,186.4922v-1.5c0,-0.7084 0.0156,-1.3021 0.0469,-1.7813c0.0312,-0.4792 0.1145,-0.8698 0.25,-1.1719c0.1354,-0.3125 0.3489,-0.5781 0.6406,-0.7968c0.2917,-0.2292 0.7031,-0.4584 1.2344,-0.6875l3.375,-1.4375c0.4479,-0.198 0.7812,-0.3802 1,-0.5469c0.2291,-0.1771 0.3854,-0.3906 0.4687,-0.6406c0.0834,-0.25 0.125,-0.5781 0.125,-0.9844c0,-0.6042 -0.0937,-1.0521 -0.2812,-1.3437c-0.1771,-0.2917 -0.4948,-0.4844 -0.9531,-0.5782c-0.448,-0.0937 -1.0886,-0.1406 -1.9219,-0.1406c-0.3021,0 -0.6667,0.0156 -1.0938,0.0469c-0.427,0.0208 -0.8698,0.0469 -1.3281,0.0781c-0.4583,0.0313 -0.8958,0.0729 -1.3125,0.125v-1.3125c0.3646,-0.0625 0.7865,-0.1146 1.2656,-0.1562c0.4792,-0.0417 0.974,-0.0781 1.4844,-0.1094c0.5209,-0.0312 1.0104,-0.0469 1.4688,-0.0469c0.5937,0 1.1458,0.0313 1.6562,0.0938c0.5104,0.0625 0.9636,0.2031 1.3594,0.4219c0.4063,0.2083 0.7188,0.5312 0.9375,0.9687c0.2188,0.4375 0.3281,1.0313 0.3281,1.7813c0,0.75 -0.0781,1.3437 -0.2343,1.7812c-0.1563,0.4375 -0.4063,0.7917 -0.75,1.0625c-0.3438,0.2708 -0.7969,0.5208 -1.3594,0.75l-3.8438,1.625c-0.3229,0.1354 -0.5572,0.2917 -0.7031,0.4688c-0.1354,0.177 -0.2239,0.4062 -0.2656,0.6875c-0.0312,0.2812 -0.0469,0.6354 -0.0469,1.0625v0.875h7.2032v1.4062z"/></g></g></svg>