<svg version="1.1" xmlns="http://www.w3.org/2000/svg" xmlns:xlink="http://www.w3.org/1999/xlink" width="322.8327" height="248.4207" viewBox="0,0,322.8327,248.4207"><g transform="translate(-78.58365,-55.78966)"><g data-paper-data="{&quot;isPaintingLayer&quot;:true}" fill="#ff0000" fill-rule="nonzero" stroke="none" stroke-width="1" stroke-linecap="square" stroke-linejoin="miter" stroke-miterlimit="10" stroke-dasharray="" stroke-dashoffset="0" style="mix-blend-mode: normal"><path d="M84.13055,102.61026c-0.9375,0 -1.7083,-0.0521 -2.3125,-0.1562c-0.5938,-0.1146 -1.0625,-0.3073 -1.4063,-0.5782c-0.3437,-0.2708 -0.5937,-0.651 -0.75,-1.1406c-0.1562,-0.5 -0.2552,-1.1302 -0.2968,-1.8906c-0.0417,-0.7604 -0.0625,-1.6979 -0.0625,-2.8125c0,-1.1042 0.0208,-2.0365 0.0625,-2.7969c0.0416,-0.7708 0.1406,-1.401 0.2968,-1.8906c0.1563,-0.4896 0.4063,-0.8698 0.75,-1.1406c0.3438,-0.2813 0.8125,-0.474 1.4063,-0.5781c0.6042,-0.1042 1.375,-0.1563 2.3125,-0.1563c0.9375,0 1.7031,0.0521 2.2969,0.1563c0.6041,0.1041 1.0781,0.2969 1.4219,0.5781c0.3437,0.2708 0.5937,0.651 0.75,1.1406c0.1666,0.4896 0.2656,1.1198 0.2968,1.8907c0.0417,0.7604 0.0625,1.6927 0.0625,2.7968c0,1.1146 -0.0208,2.0521 -0.0625,2.8125c-0.0312,0.7605 -0.1302,1.3907 -0.2968,1.8907c-0.1563,0.4896 -0.4063,0.8698 -0.75,1.1406c-0.3438,0.2708 -0.8177,0.4635 -1.4219,0.5781c-0.5938,0.1042 -1.3594,0.1563 -2.2969,0.1563zM84.13055,101.21966c0.6354,0 1.151,-0.0208 1.5469,-0.0625c0.3958,-0.0417 0.7083,-0.1406 0.9375,-0.2969c0.2291,-0.1666 0.3958,-0.4375 0.5,-0.8125c0.1145,-0.375 0.1875,-0.8854 0.2187,-1.5312c0.0313,-0.6459 0.0469,-1.474 0.0469,-2.4844c0,-1 -0.0156,-1.8229 -0.0469,-2.4687c-0.0312,-0.6563 -0.1042,-1.1667 -0.2187,-1.5313c-0.1042,-0.375 -0.2709,-0.6406 -0.5,-0.7969c-0.2292,-0.1666 -0.5417,-0.2708 -0.9375,-0.3125c-0.3959,-0.052 -0.9115,-0.0781 -1.5469,-0.0781c-0.6146,0 -1.125,0.0261 -1.5312,0.0781c-0.4063,0.0417 -0.724,0.1459 -0.9532,0.3125c-0.2291,0.1563 -0.401,0.4219 -0.5156,0.7969c-0.1042,0.3646 -0.1719,0.875 -0.2031,1.5313c-0.0208,0.6458 -0.0313,1.4687 -0.0313,2.4687c0,1.0104 0.0105,1.8386 0.0313,2.4844c0.0312,0.6458 0.099,1.1563 0.2031,1.5313c0.1146,0.375 0.2865,0.6458 0.5157,0.8125c0.2291,0.1562 0.5416,0.2552 0.9375,0.2968c0.4062,0.0417 0.9218,0.0625 1.5468,0.0625z"/><path d="M81.23995,124.85396v-10.9999l-2.6563,1.2812v-1.4375l3.125,-1.6719h1.1406v12.8282z"/><path d="M79.52638,147.25406v-1.5c0,-0.7084 0.0156,-1.3021 0.0469,-1.7813c0.0312,-0.4792 0.1145,-0.8698 0.25,-1.1719c0.1354,-0.3125 0.3489,-0.5781 0.6406,-0.7968c0.2917,-0.2292 0.7031,-0.4584 1.2344,-0.6875l3.375,-1.4375c0.4479,-0.198 0.7812,-0.3802 1,-0.5469c0.2291,-0.1771 0.3854,-0.3906 0.4687,-0.6406c0.0834,-0.25 0.125,-0.5781 0.125,-0.9844c0,-0.6042 -0.0937,-1.0521 -0.2812,-1.3437c-0.1771,-0.2917 -0.4948,-0.4844 -0.9531,-0.5782c-0.448,-0.0937 -1.0886,-0.1406 -1.9219,-0.1406c-0.3021,0 -0.6667,0.0156 -1.0938,0.0469c-0.427,0.0208 -0.8698,0.0469 -1.3281,0.0781c-0.4583,0.0313 -0.8958,0.0729 -1.3125,0.125v-1.3125c0.3646,-0.0625 0.7865,-0.1146 1.2656,-0.1562c0.4792,-0.0417 0.974,-0.0781 1.4844,-0.1094c0.5209,-0.0312 1.0104,-0.0469 1.4688,-0.0469c0.5937,0 1.1458,0.0313 1.6562,0.0938c0.5104,0.0625 0.9636,0.2031 1.3594,0.4219c0.4063,0.2083 0.7188,0.5312 0.9375,0.9687c0.2188,0.4375 0.3281,1.0313 0.3281,1.7813c0,0.75 -0.0781,1.3437 -0.2343,1.7812c-0.1563,0.4375 -0.4063,0.7917 -0.75,1.0625c-0.3438,0.2708 -0.7969,0.5208 -1.3594,0.75l-3.8438,1.625c-0.3229,0.1354 -0.5572,0.2917 -0.7031,0.4688c-0.1354,0.177 -0.2239,0.4062 -0.2656,0.6875c-0.0312,0.2812 -0.0469,0.6354 -0.0469,1.0625v0.875h7.2032v1.4062z"/><path d="M82.80245,169.81026c-0.3855,0 -0.8125,-0.0156 -1.2813,-0.0469c-0.4583,-0.0312 -0.9115,-0.0729 -1.3594,-0.125c-0.4375,-0.052 -0.8229,-0.1041 -1.1562,-0.1562v-1.2813c0.4166,0.0313 0.8541,0.0677 1.3125,0.1094c0.4687,0.0417 0.9062,0.0729 1.3125,0.0938c0.4062,0.0104 0.7604,0.0156 1.0625,0.0156c0.7291,0 1.3489,-0.0469 1.8594,-0.1406c0.5104,-0.0938 0.8906,-0.2969 1.1406,-0.6094c0.2604,-0.3229 0.3906,-0.8229 0.3906,-1.5c0,-0.5729 -0.0833,-1.0312 -0.25,-1.375c-0.1562,-0.3437 -0.4167,-0.5833 -0.7812,-0.7187c-0.3542,-0.1459 -0.8282,-0.2188 -1.4219,-0.2188h-2.4063v-1.4062h2.4063c0.4167,0 0.7969,-0.0521 1.1406,-0.1563c0.3542,-0.1146 0.6354,-0.3281 0.8438,-0.6406c0.2187,-0.3125 0.3281,-0.7761 0.3281,-1.3906c0,-0.6667 -0.1146,-1.1563 -0.3438,-1.4688c-0.2187,-0.3125 -0.5833,-0.5156 -1.0937,-0.6094c-0.5,-0.0937 -1.1667,-0.1406 -2,-0.1406c-0.3333,0 -0.7083,0.0157 -1.125,0.0469c-0.4063,0.0208 -0.8125,0.0469 -1.2188,0.0781c-0.4062,0.0313 -0.7708,0.073 -1.0937,0.125v-1.3125c0.3437,-0.0625 0.7292,-0.1145 1.1562,-0.1562c0.4375,-0.0417 0.8855,-0.0781 1.3438,-0.1094c0.4687,-0.0312 0.8854,-0.0469 1.25,-0.0469c0.9167,0 1.6771,0.0678 2.2812,0.2032c0.6146,0.1354 1.099,0.3437 1.4532,0.625c0.3646,0.2708 0.625,0.6198 0.7812,1.0469c0.1563,0.4166 0.2344,0.9166 0.2344,1.5c0,0.9375 -0.1927,1.6354 -0.5781,2.0937c-0.375,0.4583 -0.9115,0.7708 -1.6094,0.9375v0.0625c0.4688,0.0938 0.875,0.2448 1.2188,0.4531c0.3541,0.2084 0.625,0.5261 0.8125,0.9532c0.1979,0.4166 0.2968,0.9739 0.2968,1.6718c0,0.5521 -0.0677,1.0521 -0.2031,1.5c-0.125,0.4375 -0.3646,0.8125 -0.7187,1.125c-0.3438,0.3021 -0.8386,0.5417 -1.4844,0.7188c-0.6354,0.1667 -1.4687,0.25 -2.5,0.25z"/><path d="M85.50555,192.05406v-3h-6.7656v-1.2344l5.0156,-8.5938h1.7812l-5,8.4375h5l0.3282,-4.5625h1.25v4.5625h1.9062v1.3907h-1.9062v3z"/><path d="M83.23995,214.61026c-0.3855,0 -0.8125,-0.0156 -1.2813,-0.0469c-0.4583,-0.0312 -0.9115,-0.0677 -1.3594,-0.1093c-0.4479,-0.0521 -0.8437,-0.1094 -1.1875,-0.1719v-1.2813c0.4375,0.0313 0.8855,0.0677 1.3438,0.1094c0.4583,0.0417 0.8906,0.0729 1.2969,0.0938c0.4166,0.0104 0.776,0.0156 1.0781,0.0156c0.6875,0 1.25,-0.0365 1.6875,-0.1094c0.4479,-0.0833 0.7917,-0.2187 1.0312,-0.4062c0.25,-0.1979 0.4219,-0.4636 0.5157,-0.7969c0.1041,-0.3333 0.1562,-0.7448 0.1562,-1.2344c0,-0.552 -0.0521,-0.9895 -0.1562,-1.3125c-0.1042,-0.3333 -0.2917,-0.5781 -0.5625,-0.7343c-0.2709,-0.1667 -0.6459,-0.2761 -1.125,-0.3282c-0.4688,-0.0625 -1.0729,-0.0937 -1.8125,-0.0937c-0.25,0 -0.5625,0.0104 -0.9375,0.0312c-0.3646,0.0209 -0.75,0.0521 -1.1563,0.0938c-0.4062,0.0312 -0.8125,0.0729 -1.2187,0.125v-6.8281h7.6406v1.3906h-6.1562v4c0.25,-0.0417 0.5364,-0.0781 0.8593,-0.1094c0.3334,-0.0312 0.6719,-0.052 1.0157,-0.0625c0.3437,-0.0104 0.6614,-0.0156 0.9531,-0.0156c0.9271,0 1.6667,0.0729 2.2187,0.2188c0.5625,0.1458 0.9896,0.3802 1.2813,0.7031c0.2917,0.3125 0.4948,0.6979 0.6094,1.1562c0.1145,0.448 0.1718,0.974 0.1718,1.5782c0,0.7604 -0.0729,1.4062 -0.2187,1.9375c-0.1458,0.5208 -0.3958,0.9427 -0.75,1.2656c-0.3542,0.3125 -0.849,0.5469 -1.4844,0.7031c-0.6354,0.1459 -1.4531,0.2188 -2.4531,0.2188z"/><path d="M84.34925,237.01026c-0.8541,0 -1.5833,-0.0417 -2.1875,-0.125c-0.6041,-0.0833 -1.1041,-0.2552 -1.5,-0.5156c-0.3854,-0.2709 -0.6823,-0.6875 -0.8906,-1.25c-0.125,-0.2917 -0.2187,-0.6459 -0.2812,-1.0625c-0.0625,-0.4271 -0.1094,-0.9271 -0.1407,-1.5c-0.0312,-0.5834 -0.0468,-1.2448 -0.0468,-1.9844c0,-0.6875 0.0156,-1.3125 0.0468,-1.875c0.0313,-0.5625 0.0782,-1.0573 0.1407,-1.4844c0.0729,-0.4375 0.1666,-0.8229 0.2812,-1.1562c0.2084,-0.5834 0.5104,-1.0313 0.9063,-1.3438c0.3958,-0.3125 0.9062,-0.5312 1.5312,-0.6562c0.625,-0.125 1.3854,-0.1875 2.2813,-0.1875c0.3229,0 0.6979,0.0156 1.125,0.0469c0.4271,0.0312 0.875,0.0729 1.3437,0.125c0.4688,0.0416 0.9115,0.0937 1.3282,0.1562v1.2969c-0.3855,-0.0521 -0.7917,-0.0938 -1.2188,-0.125c-0.4271,-0.0313 -0.8385,-0.0573 -1.2344,-0.0781c-0.3854,-0.0313 -0.7239,-0.0469 -1.0156,-0.0469c-0.8646,0 -1.5573,0.0625 -2.0781,0.1875c-0.5208,0.125 -0.9115,0.3594 -1.1719,0.7031c-0.2604,0.3334 -0.4323,0.8229 -0.5156,1.4688c-0.0833,0.6354 -0.125,1.4739 -0.125,2.5156h0.1094c0.1354,-0.1458 0.3281,-0.2917 0.5781,-0.4375c0.25,-0.1458 0.6146,-0.2656 1.0938,-0.3594c0.4791,-0.0937 1.1198,-0.1406 1.9218,-0.1406c0.7813,0 1.4532,0.0469 2.0157,0.1406c0.5625,0.0834 1.0156,0.25 1.3593,0.5c0.3542,0.25 0.6094,0.6094 0.7657,1.0782c0.1562,0.4687 0.2344,1.0989 0.2344,1.8906c0,0.8229 -0.0625,1.5104 -0.1875,2.0625c-0.1146,0.5417 -0.3438,0.9688 -0.6875,1.2813c-0.3334,0.302 -0.8073,0.526 -1.4219,0.6718c-0.6042,0.1355 -1.3906,0.2032 -2.3594,0.2032zM84.20865,235.61966c0.6458,0 1.1771,-0.0209 1.5938,-0.0625c0.427,-0.0521 0.7552,-0.1615 0.9843,-0.3282c0.2396,-0.177 0.4011,-0.427 0.4844,-0.75c0.0938,-0.3229 0.1406,-0.7708 0.1406,-1.3437c0,-0.5938 -0.0468,-1.0625 -0.1406,-1.4063c-0.0833,-0.3541 -0.2396,-0.6145 -0.4687,-0.7812c-0.2188,-0.1667 -0.5417,-0.2708 -0.9688,-0.3125c-0.4166,-0.0417 -0.9583,-0.0625 -1.625,-0.0625c-0.7396,0 -1.3281,0.0365 -1.7656,0.1094c-0.4271,0.0729 -0.7448,0.1927 -0.9531,0.3594c-0.2083,0.1666 -0.349,0.3802 -0.4219,0.6406c-0.0625,0.2604 -0.0937,0.5781 -0.0937,0.9531c0,0.6875 0.052,1.2292 0.1562,1.625c0.1146,0.3958 0.2917,0.6927 0.5313,0.8906c0.2395,0.198 0.5625,0.3282 0.9687,0.3907c0.4167,0.0521 0.9427,0.0781 1.5781,0.0781z"/><path d="M80.47425,259.25396l5.2188,-11.4375h-7.0469v-1.3906h8.8281v1.25l-5.2031,11.5782z"/><path d="M84.23995,281.81026c-1.0417,0 -1.8959,-0.0781 -2.5625,-0.2344c-0.6563,-0.1562 -1.1615,-0.3854 -1.5157,-0.6875c-0.3437,-0.3125 -0.5833,-0.6875 -0.7187,-1.125c-0.125,-0.4479 -0.1875,-0.9635 -0.1875,-1.5469c0,-0.7291 0.0885,-1.2968 0.2656,-1.7031c0.1875,-0.4062 0.4531,-0.7083 0.7969,-0.9062c0.3542,-0.1979 0.7812,-0.3542 1.2812,-0.4688v-0.0625c-0.7604,-0.1562 -1.3229,-0.4635 -1.6875,-0.9218c-0.3541,-0.4688 -0.5312,-1.1719 -0.5312,-2.1094c0,-0.5729 0.0729,-1.0677 0.2187,-1.4844c0.1459,-0.4271 0.3959,-0.7812 0.75,-1.0625c0.3646,-0.2812 0.8646,-0.4896 1.5,-0.625c0.6355,-0.1354 1.4323,-0.2031 2.3907,-0.2031c0.9583,0 1.7552,0.0677 2.3906,0.2031c0.6354,0.1354 1.1302,0.3438 1.4844,0.625c0.3645,0.2813 0.6198,0.6354 0.7656,1.0625c0.1562,0.4167 0.2344,0.9115 0.2344,1.4844c0,0.9375 -0.1823,1.6406 -0.5469,2.1094c-0.3542,0.4583 -0.9115,0.7656 -1.6719,0.9219v0.0625c0.5105,0.1145 0.9323,0.2708 1.2657,0.4687c0.3437,0.1979 0.6041,0.5 0.7812,0.9063c0.1875,0.4062 0.2813,0.9739 0.2813,1.7031c0,0.5833 -0.0677,1.099 -0.2032,1.5469c-0.125,0.4375 -0.3645,0.8125 -0.7187,1.125c-0.3542,0.3021 -0.8542,0.5312 -1.5,0.6875c-0.6458,0.1562 -1.5,0.2344 -2.5625,0.2344zM84.23995,280.41966c0.8645,0 1.5364,-0.0521 2.0156,-0.1563c0.4896,-0.1042 0.8333,-0.3177 1.0312,-0.6406c0.2084,-0.3229 0.3125,-0.8073 0.3125,-1.4531c0,-0.5104 -0.052,-0.9167 -0.1562,-1.2188c-0.0938,-0.3125 -0.2656,-0.5468 -0.5156,-0.7031c-0.2396,-0.1667 -0.5782,-0.2708 -1.0157,-0.3125c-0.427,-0.0521 -0.9843,-0.0781 -1.6718,-0.0781c-0.6875,0 -1.25,0.026 -1.6875,0.0781c-0.4271,0.0417 -0.7656,0.1458 -1.0156,0.3125c-0.2396,0.1563 -0.4063,0.3906 -0.5,0.7031c-0.0938,0.3021 -0.1407,0.7084 -0.1407,1.2188c0,0.6458 0.099,1.1302 0.2969,1.4531c0.2083,0.3229 0.5521,0.5365 1.0313,0.6407c0.4895,0.1041 1.1614,0.1562 2.0156,0.1562zM84.23995,274.46646c0.8854,0 1.5572,-0.0573 2.0156,-0.1718c0.4583,-0.1146 0.776,-0.3282 0.9531,-0.6407c0.1875,-0.3229 0.2813,-0.7864 0.2813,-1.3906c0,-0.5937 -0.0834,-1.0468 -0.25,-1.3593c-0.1667,-0.323 -0.4844,-0.5469 -0.9532,-0.6719c-0.4687,-0.125 -1.151,-0.1875 -2.0468,-0.1875c-0.8959,0 -1.5781,0.0625 -2.0469,0.1875c-0.4583,0.125 -0.7708,0.3489 -0.9375,0.6719c-0.1562,0.3125 -0.2344,0.7656 -0.2344,1.3593c0,0.6042 0.0834,1.0678 0.25,1.3907c0.1771,0.3125 0.5,0.526 0.9688,0.6406c0.4687,0.1146 1.1354,0.1719 2,0.1719z"/><path d="M83.53675,304.21026c-0.3333,0 -0.7187,-0.0156 -1.1562,-0.0469c-0.4375,-0.0312 -0.8854,-0.0729 -1.3438,-0.125c-0.4583,-0.0521 -0.8958,-0.1094 -1.3125,-0.1719v-1.2812c0.3855,0.0312 0.7865,0.0677 1.2032,0.1094c0.427,0.0312 0.8385,0.0625 1.2343,0.0937c0.4063,0.0209 0.75,0.0313 1.0313,0.0313c0.875,0 1.5677,-0.0625 2.0781,-0.1875c0.5208,-0.125 0.9115,-0.3542 1.1719,-0.6875c0.2604,-0.3334 0.4323,-0.8177 0.5156,-1.4531c0.0834,-0.6459 0.125,-1.4896 0.125,-2.5313h-0.125c-0.1146,0.1458 -0.2968,0.2917 -0.5468,0.4375c-0.25,0.1354 -0.6198,0.25 -1.1094,0.3438c-0.4792,0.0937 -1.125,0.1406 -1.9375,0.1406c-0.7813,0 -1.4479,-0.0417 -2,-0.125c-0.5521,-0.0833 -1.0052,-0.25 -1.3594,-0.5c-0.3437,-0.25 -0.5937,-0.6094 -0.75,-1.0781c-0.1562,-0.4792 -0.2344,-1.1094 -0.2344,-1.8907c0,-0.8229 0.0573,-1.5052 0.1719,-2.0468c0.125,-0.5521 0.349,-0.9844 0.6719,-1.2969c0.3333,-0.3125 0.8021,-0.5365 1.4062,-0.6719c0.6146,-0.1354 1.4115,-0.2031 2.3907,-0.2031c0.8958,0 1.6562,0.0469 2.2812,0.1406c0.625,0.0834 1.1302,0.2657 1.5156,0.5469c0.3855,0.2709 0.6667,0.7084 0.8438,1.3125c0.1667,0.4688 0.276,1.0677 0.3281,1.7969c0.0521,0.7292 0.0782,1.6094 0.0782,2.6406c0,0.7188 -0.0157,1.3698 -0.0469,1.9532c-0.0313,0.5833 -0.0886,1.1041 -0.1719,1.5625c-0.0833,0.4583 -0.1979,0.8645 -0.3437,1.2187c-0.2188,0.5104 -0.5261,0.9115 -0.9219,1.2031c-0.3854,0.2813 -0.8802,0.4792 -1.4844,0.5938c-0.6041,0.1146 -1.3385,0.1719 -2.2031,0.1719zM83.81805,297.50716c0.7292,0 1.3125,-0.0365 1.75,-0.1094c0.4375,-0.0729 0.7552,-0.1927 0.9531,-0.3594c0.2083,-0.177 0.3438,-0.3958 0.4063,-0.6562c0.0625,-0.2604 0.0937,-0.5781 0.0937,-0.9531c0,-0.6771 -0.0521,-1.2136 -0.1562,-1.6094c-0.1042,-0.4063 -0.2761,-0.7083 -0.5157,-0.9063c-0.2395,-0.1979 -0.5677,-0.3229 -0.9843,-0.375c-0.4167,-0.0625 -0.9323,-0.0937 -1.5469,-0.0937c-0.6667,0 -1.2083,0.026 -1.625,0.0781c-0.4167,0.0521 -0.7448,0.1615 -0.9844,0.3281c-0.2291,0.1667 -0.3906,0.4115 -0.4843,0.7344c-0.0938,0.3229 -0.1407,0.7709 -0.1407,1.3438c0,0.5937 0.0469,1.0677 0.1407,1.4219c0.0937,0.3437 0.25,0.6041 0.4687,0.7812c0.2292,0.1667 0.5521,0.2708 0.9688,0.3125c0.4271,0.0417 0.9791,0.0625 1.6562,0.0625z"/><path d="M170.21315,68.93026c-0.8854,0 -1.6354,-0.0521 -2.25,-0.1563c-0.6042,-0.1145 -1.1042,-0.302 -1.5,-0.5625c-0.3854,-0.2708 -0.6823,-0.651 -0.8906,-1.1406c-0.1979,-0.4896 -0.3334,-1.1198 -0.4063,-1.8906c-0.0729,-0.7708 -0.1093,-1.7135 -0.1093,-2.8281c0,-1.1042 0.0364,-2.0365 0.1093,-2.7969c0.073,-0.7708 0.2084,-1.401 0.4063,-1.8906c0.2083,-0.4896 0.5052,-0.8698 0.8906,-1.1406c0.3959,-0.2813 0.8959,-0.474 1.5,-0.5781c0.6146,-0.1042 1.3646,-0.1563 2.25,-0.1563c0.3542,0 0.7136,0.0156 1.0782,0.0469c0.3645,0.0208 0.7135,0.0521 1.0468,0.0937c0.3438,0.0313 0.6407,0.0782 0.8907,0.1407v1.2812c-0.2917,-0.0312 -0.5886,-0.0625 -0.8907,-0.0937c-0.302,-0.0313 -0.6041,-0.0521 -0.9062,-0.0625c-0.3021,-0.0209 -0.5677,-0.0313 -0.7969,-0.0313c-0.7291,0 -1.3385,0.0313 -1.8281,0.0938c-0.4792,0.0625 -0.8646,0.1875 -1.1562,0.375c-0.2813,0.177 -0.4948,0.4583 -0.6407,0.8437c-0.1354,0.375 -0.2291,0.875 -0.2812,1.5c-0.0521,0.625 -0.0781,1.4167 -0.0781,2.375c0,0.9583 0.026,1.7552 0.0781,2.3906c0.0521,0.625 0.1458,1.1303 0.2812,1.5157c0.1459,0.375 0.3594,0.651 0.6407,0.8281c0.2916,0.1771 0.6771,0.2969 1.1562,0.3594c0.4896,0.0625 1.099,0.0937 1.8282,0.0937c0.4166,0 0.875,-0.0156 1.375,-0.0468c0.5,-0.0417 0.927,-0.0886 1.2812,-0.1407v1.3282c-0.2604,0.0521 -0.5677,0.0937 -0.9219,0.125c-0.3541,0.0312 -0.7187,0.0573 -1.0937,0.0781c-0.3646,0.0313 -0.7188,0.0469 -1.0625,0.0469zM181.03425,68.93026c-0.9896,0 -1.8125,-0.0521 -2.4688,-0.1563c-0.6458,-0.1145 -1.1614,-0.3073 -1.5468,-0.5781c-0.375,-0.2708 -0.6511,-0.651 -0.8282,-1.1406c-0.177,-0.5 -0.2916,-1.1302 -0.3437,-1.8906c-0.0417,-0.7604 -0.0625,-1.6979 -0.0625,-2.8125c0,-1.1042 0.0208,-2.0365 0.0625,-2.7969c0.0521,-0.7708 0.1667,-1.401 0.3437,-1.8906c0.1771,-0.4896 0.4532,-0.8698 0.8282,-1.1406c0.3854,-0.2813 0.901,-0.474 1.5468,-0.5781c0.6563,-0.1042 1.4792,-0.1563 2.4688,-0.1563c1,0 1.8229,0.0521 2.4687,0.1563c0.6563,0.1041 1.1719,0.2968 1.5469,0.5781c0.3854,0.2708 0.6667,0.651 0.8438,1.1406c0.1771,0.4896 0.2864,1.1198 0.3281,1.8906c0.0521,0.7605 0.0781,1.6928 0.0781,2.7969c0,1.1146 -0.026,2.0521 -0.0781,2.8125c-0.0417,0.7604 -0.151,1.3907 -0.3281,1.8907c-0.1771,0.4895 -0.4583,0.8697 -0.8438,1.1406c-0.375,0.2708 -0.8906,0.4635 -1.5468,0.5781c-0.6459,0.1042 -1.4688,0.1563 -2.4688,0.1563zM181.03425,67.53966c0.6875,0 1.2552,-0.0209 1.7031,-0.0625c0.4479,-0.0417 0.8021,-0.1407 1.0625,-0.2969c0.2604,-0.1667 0.4583,-0.4323 0.5938,-0.7969c0.1458,-0.375 0.2291,-0.8854 0.25,-1.5312c0.0312,-0.6459 0.0468,-1.4792 0.0468,-2.5c0,-1.0209 -0.0156,-1.8542 -0.0468,-2.5c-0.0209,-0.6459 -0.1042,-1.1511 -0.25,-1.5157c-0.1355,-0.3645 -0.3334,-0.625 -0.5938,-0.7812c-0.2604,-0.1667 -0.6146,-0.2708 -1.0625,-0.3125c-0.4479,-0.0521 -1.0156,-0.0781 -1.7031,-0.0781c-0.6771,0 -1.2396,0.026 -1.6875,0.0781c-0.4375,0.0417 -0.7917,0.1458 -1.0625,0.3125c-0.2604,0.1563 -0.4583,0.4167 -0.5938,0.7813c-0.125,0.3645 -0.2083,0.8698 -0.25,1.5156c-0.0416,0.6458 -0.0625,1.4792 -0.0625,2.5c0,1.0208 0.0209,1.8542 0.0625,2.5c0.0417,0.6458 0.125,1.1562 0.25,1.5312c0.1355,0.3646 0.3334,0.6303 0.5938,0.7969c0.2708,0.1563 0.625,0.2552 1.0625,0.2969c0.4479,0.0417 1.0104,0.0625 1.6875,0.0625zM189.59825,68.77396v-12.8281h2.1719l4.375,10.2188h0.0938l4.375,-10.2188h2.1562v12.8281h-1.5625v-10.2656h-0.0781l-4.375,10.2657h-1.1875l-4.375,-10.2657h-0.0781v10.2657zM206.50085,68.77396v-12.8281h5.9687c0.8542,0 1.5261,0.1302 2.0157,0.3906c0.5,0.2605 0.8541,0.6303 1.0625,1.1094c0.2187,0.4792 0.3281,1.0521 0.3281,1.7188c0,0.5521 -0.0781,1.0364 -0.2344,1.4531c-0.1458,0.4167 -0.3802,0.7552 -0.7031,1.0156c-0.3125,0.2605 -0.7292,0.448 -1.25,0.5625v0.0625c0.6354,0.1146 1.1198,0.3178 1.4531,0.6094c0.3334,0.2917 0.5625,0.6563 0.6875,1.0938c0.125,0.4375 0.1875,0.9166 0.1875,1.4375c0,0.4479 -0.052,0.8802 -0.1562,1.2969c-0.1042,0.4062 -0.2865,0.7656 -0.5469,1.0781c-0.25,0.3021 -0.6146,0.5469 -1.0937,0.7344c-0.4688,0.177 -1.073,0.2656 -1.8125,0.2656zM208.11025,67.39896h3.9219c0.6041,0 1.0781,-0.0729 1.4218,-0.2187c0.3542,-0.1458 0.6042,-0.3802 0.75,-0.7031c0.1459,-0.3334 0.2188,-0.7605 0.2188,-1.2813c0,-0.5417 -0.0781,-0.9739 -0.2344,-1.2969c-0.1562,-0.3333 -0.4115,-0.5677 -0.7656,-0.7031c-0.3438,-0.1458 -0.8073,-0.2187 -1.3906,-0.2187h-3.9219zM208.11025,61.57086h3.8437c0.5209,0 0.9532,-0.0729 1.2969,-0.2187c0.3438,-0.1563 0.599,-0.3907 0.7656,-0.7032c0.1667,-0.3125 0.25,-0.7083 0.25,-1.1875c0,-0.5208 -0.0677,-0.9375 -0.2031,-1.25c-0.125,-0.3125 -0.3542,-0.5364 -0.6875,-0.6718c-0.3333,-0.1459 -0.8073,-0.2188 -1.4219,-0.2188h-3.8437zM224.03695,68.93026c-0.9896,0 -1.8125,-0.0521 -2.4688,-0.1563c-0.6458,-0.1145 -1.1615,-0.3073 -1.5469,-0.5781c-0.375,-0.2708 -0.651,-0.651 -0.8281,-1.1406c-0.1771,-0.5 -0.2917,-1.1302 -0.3437,-1.8906c-0.0417,-0.7604 -0.0625,-1.6979 -0.0625,-2.8125c0,-1.1042 0.0208,-2.0365 0.0625,-2.7969c0.052,-0.7708 0.1666,-1.401 0.3437,-1.8906c0.1771,-0.4896 0.4531,-0.8698 0.8281,-1.1406c0.3855,-0.2813 0.9011,-0.474 1.5469,-0.5781c0.6563,-0.1042 1.4792,-0.1563 2.4688,-0.1563c1,0 1.8229,0.0521 2.4687,0.1563c0.6563,0.1041 1.1719,0.2968 1.5469,0.5781c0.3854,0.2708 0.6667,0.651 0.8438,1.1406c0.177,0.4896 0.2864,1.1198 0.3281,1.8906c0.0521,0.7605 0.0781,1.6928 0.0781,2.7969c0,1.1146 -0.026,2.0521 -0.0781,2.8125c-0.0417,0.7604 -0.151,1.3907 -0.3281,1.8907c-0.1771,0.4895 -0.4584,0.8697 -0.8438,1.1406c-0.375,0.2708 -0.8906,0.4635 -1.5468,0.5781c-0.6459,0.1042 -1.4688,0.1563 -2.4688,0.1563zM224.03695,67.53966c0.6875,0 1.2552,-0.0209 1.7031,-0.0625c0.4479,-0.0417 0.8021,-0.1407 1.0625,-0.2969c0.2604,-0.1667 0.4583,-0.4323 0.5937,-0.7969c0.1459,-0.375 0.2292,-0.8854 0.25,-1.5312c0.0313,-0.6459 0.0469,-1.4792 0.0469,-2.5c0,-1.0209 -0.0156,-1.8542 -0.0469,-2.5c-0.0208,-0.6459 -0.1041,-1.1511 -0.25,-1.5157c-0.1354,-0.3645 -0.3333,-0.625 -0.5937,-0.7812c-0.2604,-0.1667 -0.6146,-0.2708 -1.0625,-0.3125c-0.4479,-0.0521 -1.0156,-0.0781 -1.7031,-0.0781c-0.6771,0 -1.2396,0.026 -1.6875,0.0781c-0.4375,0.0417 -0.7917,0.1458 -1.0625,0.3125c-0.2604,0.1563 -0.4584,0.4167 -0.5938,0.7813c-0.125,0.3645 -0.2083,0.8698 -0.25,1.5156c-0.0416,0.6458 -0.0625,1.4792 -0.0625,2.5c0,1.0208 0.0209,1.8542 0.0625,2.5c0.0417,0.6458 0.125,1.1562 0.25,1.5312c0.1354,0.3646 0.3334,0.6303 0.5938,0.7969c0.2708,0.1563 0.625,0.2552 1.0625,0.2969c0.4479,0.0417 1.0104,0.0625 1.6875,0.0625z"/><path d="M168.71315,91.33026c-0.7188,0 -1.3125,-0.0625 -1.7813,-0.1875c-0.4687,-0.125 -0.8437,-0.3125 -1.125,-0.5625c-0.2812,-0.25 -0.4895,-0.5677 -0.625,-0.9531c-0.1354,-0.3855 -0.2239,-0.8438 -0.2656,-1.375c-0.0416,-0.5417 -0.0625,-1.1511 -0.0625,-1.8282c0,-0.7187 0.0261,-1.3437 0.0782,-1.875c0.052,-0.5312 0.1562,-0.9895 0.3125,-1.375c0.1562,-0.3958 0.375,-0.7135 0.6562,-0.9531c0.2813,-0.2396 0.6458,-0.4166 1.0938,-0.5312c0.4479,-0.1146 1,-0.1719 1.6562,-0.1719c0.4375,0 0.8958,0.0208 1.375,0.0625c0.4792,0.0417 0.875,0.099 1.1875,0.1719v1.2344c-0.2917,-0.0521 -0.6458,-0.0938 -1.0625,-0.125c-0.4167,-0.0417 -0.7917,-0.0625 -1.125,-0.0625c-0.5833,0 -1.0521,0.0521 -1.4062,0.1562c-0.3542,0.0938 -0.625,0.2709 -0.8125,0.5313c-0.1771,0.2604 -0.2969,0.6302 -0.3594,1.1094c-0.0625,0.4687 -0.0938,1.0781 -0.0938,1.8281c0,0.75 0.0313,1.3646 0.0938,1.8437c0.0625,0.4792 0.1875,0.849 0.375,1.1094c0.1979,0.25 0.474,0.4219 0.8281,0.5156c0.3542,0.0938 0.8229,0.1407 1.4063,0.1407c0.3541,0 0.7344,-0.0156 1.1406,-0.0469c0.4167,-0.0417 0.7865,-0.0885 1.1094,-0.1406v1.2344c-0.3125,0.0625 -0.7136,0.1198 -1.2031,0.1718c-0.4792,0.0521 -0.9428,0.0782 -1.3907,0.0782zM177.59195,91.33026c-0.7813,0 -1.4323,-0.0469 -1.9532,-0.1406c-0.5104,-0.0938 -0.9166,-0.2448 -1.2187,-0.4532c-0.3021,-0.2187 -0.5261,-0.5156 -0.6719,-0.8906c-0.1354,-0.375 -0.2239,-0.8437 -0.2656,-1.4062c-0.0313,-0.5625 -0.0469,-1.2344 -0.0469,-2.0156c0,-0.7917 0.0157,-1.4688 0.0469,-2.0313c0.0417,-0.5625 0.1302,-1.0312 0.2656,-1.4062c0.1459,-0.375 0.3698,-0.6667 0.6719,-0.875c0.3021,-0.2188 0.7084,-0.3698 1.2188,-0.4532c0.5208,-0.0937 1.1719,-0.1406 1.9531,-0.1406c0.7917,0 1.4427,0.0469 1.9531,0.1407c0.5105,0.0833 0.9167,0.2343 1.2188,0.4531c0.3125,0.2083 0.5364,0.5 0.6719,0.875c0.1458,0.375 0.2343,0.8437 0.2656,1.4062c0.0417,0.5625 0.0625,1.2396 0.0625,2.0313c0,0.7812 -0.0208,1.4531 -0.0625,2.0156c-0.0313,0.5625 -0.1198,1.0313 -0.2656,1.4063c-0.1355,0.375 -0.3594,0.6718 -0.6719,0.8906c-0.3021,0.2083 -0.7083,0.3594 -1.2188,0.4531c-0.5104,0.0938 -1.1614,0.1407 -1.9531,0.1407zM177.59195,90.03336c0.6666,0 1.1822,-0.0417 1.5468,-0.125c0.3646,-0.0937 0.6198,-0.2604 0.7657,-0.5c0.1562,-0.25 0.25,-0.6146 0.2812,-1.0937c0.0313,-0.4792 0.0469,-1.1094 0.0469,-1.8907c0,-0.7916 -0.0156,-1.427 -0.0469,-1.9062c-0.0312,-0.4792 -0.125,-0.8386 -0.2812,-1.0781c-0.1459,-0.25 -0.4011,-0.4167 -0.7656,-0.5c-0.3646,-0.0938 -0.8803,-0.1407 -1.5469,-0.1407c-0.6563,0 -1.1719,0.0469 -1.5469,0.1407c-0.3646,0.0833 -0.625,0.25 -0.7812,0.5c-0.1459,0.2396 -0.2396,0.5989 -0.2813,1.0781c-0.0312,0.4792 -0.0468,1.1146 -0.0468,1.9063c0,0.7812 0.0156,1.4114 0.0468,1.8906c0.0417,0.4792 0.1355,0.8437 0.2813,1.0937c0.1562,0.2396 0.4167,0.4063 0.7812,0.5c0.375,0.0834 0.8907,0.125 1.5469,0.125zM184.59095,91.17396v-9.5156h1.375l0.0625,1.3594h0.1094c0.1145,-0.2917 0.2864,-0.5469 0.5156,-0.7656c0.2292,-0.2292 0.5312,-0.4063 0.9062,-0.5313c0.3855,-0.1354 0.875,-0.2031 1.4688,-0.2031c0.8437,0 1.4687,0.1198 1.875,0.3594c0.4167,0.2396 0.7031,0.6198 0.8594,1.1406h0.125c0.1145,-0.2916 0.2916,-0.5468 0.5312,-0.7656c0.2396,-0.2292 0.5573,-0.4062 0.9531,-0.5312c0.3959,-0.1355 0.8855,-0.2032 1.4688,-0.2032c0.8646,0 1.5052,0.1302 1.9219,0.3907c0.427,0.2604 0.7083,0.6666 0.8437,1.2187c0.1354,0.5417 0.2031,1.2396 0.2031,2.0938v5.9531h-1.5v-5.4219c0,-0.6562 -0.026,-1.1718 -0.0781,-1.5468c-0.0521,-0.375 -0.1458,-0.6563 -0.2812,-0.8438c-0.1354,-0.1979 -0.3438,-0.3281 -0.625,-0.3906c-0.2709,-0.0625 -0.6354,-0.0938 -1.0938,-0.0938c-0.5312,0 -0.9531,0.073 -1.2656,0.2188c-0.3125,0.1354 -0.5417,0.3489 -0.6875,0.6406c-0.1458,0.2813 -0.2396,0.6354 -0.2812,1.0625c-0.0313,0.4167 -0.0469,0.9063 -0.0469,1.4688v4.9062h-1.5v-5.4219c0,-0.6562 -0.0261,-1.1718 -0.0781,-1.5468c-0.0521,-0.375 -0.1459,-0.6563 -0.2813,-0.8438c-0.1354,-0.1979 -0.3437,-0.3281 -0.625,-0.3906c-0.2708,-0.0625 -0.6354,-0.0937 -1.0937,-0.0937c-0.5313,0 -0.9532,0.0781 -1.2657,0.2343c-0.3125,0.1563 -0.5364,0.375 -0.6718,0.6563c-0.1355,0.2812 -0.224,0.6354 -0.2657,1.0625c-0.0312,0.4271 -0.0468,0.9062 -0.0468,1.4375v4.9062zM205.71765,91.33026c-0.4271,0 -0.849,-0.0365 -1.2656,-0.1094c-0.4063,-0.0729 -0.7709,-0.2135 -1.0938,-0.4219c-0.3229,-0.2187 -0.5781,-0.5468 -0.7656,-0.9843h-0.1094l-0.0625,1.3594h-1.375v-13.8594h1.5313v5.5625h0.0937c0.1667,-0.3542 0.3959,-0.6302 0.6875,-0.8281c0.2917,-0.1979 0.6354,-0.3334 1.0313,-0.4063c0.4062,-0.0833 0.8646,-0.125 1.375,-0.125c0.6771,0 1.2396,0.0782 1.6875,0.2344c0.4479,0.1458 0.8021,0.401 1.0625,0.7656c0.2708,0.3646 0.4583,0.8646 0.5625,1.5c0.1041,0.625 0.1562,1.4271 0.1562,2.4063c0,0.9687 -0.0573,1.7708 -0.1718,2.4062c-0.1146,0.625 -0.3021,1.1198 -0.5625,1.4844c-0.2605,0.3646 -0.6198,0.625 -1.0782,0.7813c-0.4479,0.1562 -1.0156,0.2343 -1.7031,0.2343zM205.12385,89.98646c0.573,0 1.0313,-0.0416 1.375,-0.125c0.3438,-0.0833 0.599,-0.2395 0.7657,-0.4687c0.177,-0.2396 0.2968,-0.5938 0.3593,-1.0625c0.0625,-0.4792 0.0938,-1.1146 0.0938,-1.9063c0,-0.802 -0.0313,-1.4323 -0.0938,-1.8906c-0.0625,-0.4687 -0.1822,-0.8229 -0.3593,-1.0625c-0.1667,-0.25 -0.4219,-0.4114 -0.7656,-0.4844c-0.3438,-0.0729 -0.8021,-0.1093 -1.375,-0.1093c-0.6042,0 -1.0886,0.0781 -1.4532,0.2344c-0.3645,0.1562 -0.6198,0.401 -0.7656,0.7343c-0.1458,0.323 -0.2396,0.6928 -0.2812,1.1094c-0.0313,0.4167 -0.0469,0.9063 -0.0469,1.4688c0,0.5416 0.0156,1.0208 0.0469,1.4375c0.0312,0.4166 0.1198,0.7864 0.2656,1.1094c0.1563,0.3541 0.4167,0.6145 0.7813,0.7812c0.3645,0.1563 0.8489,0.2344 1.4531,0.2344zM215.81855,91.33026c-0.7812,0 -1.4323,-0.0469 -1.9531,-0.1406c-0.5104,-0.0938 -0.9167,-0.2448 -1.2188,-0.4532c-0.302,-0.2187 -0.526,-0.5156 -0.6718,-0.8906c-0.1355,-0.375 -0.224,-0.8437 -0.2657,-1.4062c-0.0312,-0.5625 -0.0468,-1.2344 -0.0468,-2.0156c0,-0.7917 0.0156,-1.4688 0.0469,-2.0313c0.0416,-0.5625 0.1302,-1.0312 0.2656,-1.4062c0.1458,-0.375 0.3698,-0.6667 0.6719,-0.875c0.302,-0.2188 0.7083,-0.3698 1.2187,-0.4532c0.5208,-0.0937 1.1719,-0.1406 1.9531,-0.1406c0.7917,0 1.4428,0.0469 1.9532,0.1407c0.5104,0.0833 0.9166,0.2343 1.2187,0.4531c0.3125,0.2083 0.5365,0.5 0.6719,0.875c0.1458,0.375 0.2344,0.8437 0.2656,1.4062c0.0417,0.5625 0.0625,1.2396 0.0625,2.0313c0,0.7812 -0.0208,1.4531 -0.0625,2.0156c-0.0312,0.5625 -0.1198,1.0313 -0.2656,1.4063c-0.1354,0.375 -0.3594,0.6718 -0.6719,0.8906c-0.302,0.2083 -0.7083,0.3594 -1.2187,0.4531c-0.5104,0.0938 -1.1615,0.1407 -1.9531,0.1407zM215.81855,90.03336c0.6667,0 1.1823,-0.0417 1.5469,-0.125c0.3646,-0.0937 0.6198,-0.2604 0.7656,-0.5c0.1563,-0.25 0.25,-0.6146 0.2813,-1.0937c0.0312,-0.4792 0.0468,-1.1094 0.0468,-1.8907c0,-0.7916 -0.0156,-1.427 -0.0468,-1.9062c-0.0313,-0.4792 -0.125,-0.8386 -0.2813,-1.0781c-0.1458,-0.25 -0.401,-0.4167 -0.7656,-0.5c-0.3646,-0.0938 -0.8802,-0.1407 -1.5469,-0.1407c-0.6562,0 -1.1718,0.0469 -1.5468,0.1407c-0.3646,0.0833 -0.625,0.25 -0.7813,0.5c-0.1458,0.2396 -0.2396,0.5989 -0.2812,1.0781c-0.0313,0.4792 -0.0469,1.1146 -0.0469,1.9063c0,0.7812 0.0156,1.4114 0.0469,1.8906c0.0416,0.4792 0.1354,0.8437 0.2812,1.0937c0.1563,0.2396 0.4167,0.4063 0.7813,0.5c0.375,0.0834 0.8906,0.125 1.5469,0.125z"/><path d="M165.49435,113.57396v-12.8281h1.6094v11.4063h5.9844v1.4218zM177.67205,113.57396l-3.5,-9.5156h1.5938l2.7969,7.9375h0.1406l2.7812,-7.9375h1.5782l-3.5,9.5156zM184.74735,113.57396v-1.8281h1.7813v1.8281z"/><path d="M164.15065,135.97396l4.8594,-12.8281h2.0156l4.8281,12.8281h-1.6562l-1.3281,-3.5h-5.7656l-1.3282,3.5zM167.58815,131.06776h4.7969l-2.3438,-6.2813h-0.0937zM183.02085,136.13026c-0.8854,0 -1.625,-0.0521 -2.2187,-0.1563c-0.5833,-0.1145 -1.0573,-0.2968 -1.4219,-0.5468c-0.3646,-0.25 -0.6406,-0.5938 -0.8281,-1.0313c-0.1771,-0.4375 -0.2969,-0.9844 -0.3594,-1.6406c-0.0625,-0.6667 -0.0937,-1.4635 -0.0937,-2.3906v-7.2188h1.5937v7.8438c0,0.7812 0.0313,1.4166 0.0938,1.9062c0.0625,0.4896 0.1979,0.8698 0.4062,1.1407c0.2084,0.2708 0.5365,0.4583 0.9844,0.5625c0.4479,0.0937 1.0625,0.1406 1.8438,0.1406c0.7812,0 1.3906,-0.0469 1.8281,-0.1406c0.4479,-0.1042 0.7708,-0.2917 0.9687,-0.5625c0.2084,-0.2709 0.3386,-0.6511 0.3907,-1.1406c0.052,-0.4896 0.0781,-1.125 0.0781,-1.9063v-7.8437h1.6094v7.2187c0,0.9271 -0.0313,1.724 -0.0938,2.3906c-0.0521,0.6563 -0.1718,1.2032 -0.3593,1.6407c-0.1771,0.4375 -0.448,0.7812 -0.8125,1.0312c-0.3542,0.25 -0.8282,0.4323 -1.4219,0.5469c-0.5938,0.1042 -1.3229,0.1562 -2.1875,0.1562zM194.21395,135.97396v-11.4218h-4.0469v-1.4063h9.7187v1.4063h-4.0625v11.4218zM207.11565,136.13026c-0.9895,0 -1.8125,-0.0521 -2.4687,-0.1563c-0.6458,-0.1145 -1.1615,-0.3073 -1.5469,-0.5781c-0.375,-0.2708 -0.651,-0.651 -0.8281,-1.1406c-0.1771,-0.5 -0.2917,-1.1302 -0.3438,-1.8906c-0.0416,-0.7604 -0.0625,-1.6979 -0.0625,-2.8125c0,-1.1042 0.0209,-2.0365 0.0625,-2.7969c0.0521,-0.7708 0.1667,-1.401 0.3438,-1.8906c0.1771,-0.4896 0.4531,-0.8698 0.8281,-1.1406c0.3854,-0.2813 0.9011,-0.474 1.5469,-0.5781c0.6562,-0.1042 1.4792,-0.1563 2.4687,-0.1563c1,0 1.823,0.0521 2.4688,0.1563c0.6562,0.1041 1.1719,0.2968 1.5469,0.5781c0.3854,0.2708 0.6666,0.651 0.8437,1.1406c0.1771,0.4896 0.2865,1.1198 0.3282,1.8906c0.052,0.7605 0.0781,1.6928 0.0781,2.7969c0,1.1146 -0.0261,2.0521 -0.0781,2.8125c-0.0417,0.7604 -0.1511,1.3907 -0.3282,1.8907c-0.177,0.4895 -0.4583,0.8697 -0.8437,1.1406c-0.375,0.2708 -0.8906,0.4635 -1.5469,0.5781c-0.6458,0.1042 -1.4687,0.1563 -2.4687,0.1563zM207.11565,134.73966c0.6875,0 1.2552,-0.0209 1.7032,-0.0625c0.4479,-0.0417 0.802,-0.1407 1.0625,-0.2969c0.2604,-0.1667 0.4583,-0.4323 0.5937,-0.7969c0.1458,-0.375 0.2292,-0.8854 0.25,-1.5312c0.0313,-0.6459 0.0469,-1.4792 0.0469,-2.5c0,-1.0209 -0.0156,-1.8542 -0.0469,-2.5c-0.0208,-0.6459 -0.1042,-1.1511 -0.25,-1.5156c-0.1354,-0.3646 -0.3333,-0.625 -0.5937,-0.7813c-0.2605,-0.1667 -0.6146,-0.2708 -1.0625,-0.3125c-0.448,-0.0521 -1.0157,-0.0781 -1.7032,-0.0781c-0.677,0 -1.2395,0.026 -1.6875,0.0781c-0.4375,0.0417 -0.7916,0.1458 -1.0625,0.3125c-0.2604,0.1563 -0.4583,0.4167 -0.5937,0.7813c-0.125,0.3645 -0.2083,0.8698 -0.25,1.5156c-0.0417,0.6458 -0.0625,1.4792 -0.0625,2.5c0,1.0208 0.0208,1.8542 0.0625,2.5c0.0417,0.6458 0.125,1.1562 0.25,1.5312c0.1354,0.3646 0.3333,0.6303 0.5937,0.7969c0.2709,0.1563 0.625,0.2552 1.0625,0.2969c0.448,0.0417 1.0105,0.0625 1.6875,0.0625zM215.67975,135.97396v-12.8281h5.625c0.8229,0 1.4792,0.1042 1.9687,0.3125c0.4896,0.1979 0.8542,0.4792 1.0938,0.8438c0.2396,0.3541 0.401,0.7812 0.4844,1.2812c0.0937,0.4896 0.1406,1.0261 0.1406,1.6094c0,0.5521 -0.0417,1.0781 -0.125,1.5781c-0.0729,0.4896 -0.2344,0.9219 -0.4844,1.2969c-0.25,0.3646 -0.625,0.6563 -1.125,0.875c-0.5,0.2083 -1.1666,0.3125 -2,0.3125h-3.9687v4.7188zM217.28915,129.84896h3.4531c0.6042,0 1.0833,-0.0468 1.4375,-0.1406c0.3646,-0.1042 0.6302,-0.2656 0.7969,-0.4844c0.177,-0.2187 0.2916,-0.4947 0.3437,-0.8281c0.0521,-0.3333 0.0781,-0.7343 0.0781,-1.2031c0,-0.4792 -0.026,-0.8854 -0.0781,-1.2187c-0.0416,-0.3334 -0.1458,-0.6042 -0.3125,-0.8125c-0.1666,-0.2188 -0.4271,-0.3803 -0.7812,-0.4844c-0.3542,-0.1042 -0.8386,-0.1563 -1.4531,-0.1563h-3.4844zM227.84365,135.97396v-12.8281h1.6093v11.4063h5.9844v1.4218zM236.53695,135.97396l4.8593,-12.8281h2.0157l4.8281,12.8281h-1.6563l-1.3281,-3.5h-5.7656l-1.3281,3.5zM239.97445,131.06776h4.7968l-2.3437,-6.2813h-0.0938zM252.35055,135.97396v-4.9062l-4.6563,-7.9219h1.7188l3.7187,6.3125h0.125l3.6719,-6.3125h1.6875l-4.6719,7.9219v4.9062z"/><path d="M167.79125,158.53026c-0.6979,0 -1.2812,-0.0781 -1.75,-0.2344c-0.4583,-0.1667 -0.8021,-0.4479 -1.0312,-0.8437c-0.2292,-0.4063 -0.3438,-0.9688 -0.3438,-1.6875c0,-0.7188 0.0833,-1.2865 0.25,-1.7032c0.1667,-0.4166 0.4583,-0.7135 0.875,-0.8906c0.4271,-0.1771 1.0208,-0.2656 1.7813,-0.2656c0.125,0 0.3177,0.0052 0.5781,0.0156c0.2708,0 0.5781,0.0052 0.9219,0.0157c0.3541,0.0104 0.7083,0.0208 1.0625,0.0312c0.3541,0 0.6823,0.0052 0.9844,0.0156v-0.5937c0,-0.5625 -0.0365,-1 -0.1094,-1.3125c-0.0625,-0.3229 -0.2031,-0.5625 -0.4219,-0.7188c-0.2083,-0.1562 -0.5052,-0.2552 -0.8906,-0.2968c-0.375,-0.0417 -0.8698,-0.0625 -1.4844,-0.0625c-0.2812,0 -0.6093,0.0104 -0.9843,0.0312c-0.3646,0.0104 -0.724,0.0313 -1.0782,0.0625c-0.3541,0.0313 -0.6406,0.0677 -0.8593,0.1094v-1.2344c0.4791,-0.0833 1.0104,-0.1458 1.5937,-0.1875c0.5938,-0.0416 1.2084,-0.0625 1.8438,-0.0625c0.6666,0 1.2344,0.0417 1.7031,0.125c0.4688,0.073 0.849,0.198 1.1406,0.375c0.2917,0.1667 0.5105,0.3959 0.6563,0.6875c0.1562,0.2813 0.2604,0.6302 0.3125,1.0469c0.0625,0.4063 0.0937,0.8854 0.0937,1.4375v5.9844h-1.375l-0.0468,-1.3438h-0.1094c-0.2083,0.4375 -0.4948,0.7657 -0.8594,0.9844c-0.3646,0.2188 -0.7656,0.3594 -1.2031,0.4219c-0.4375,0.0625 -0.8542,0.0938 -1.25,0.0938zM168.35375,157.28026c0.3646,0 0.6979,-0.0208 1,-0.0625c0.3125,-0.0521 0.5886,-0.1406 0.8281,-0.2656c0.2396,-0.125 0.4271,-0.3125 0.5625,-0.5625c0.1355,-0.2605 0.2292,-0.5417 0.2813,-0.8438c0.0625,-0.3021 0.0937,-0.6614 0.0937,-1.0781v-0.4844h-3.1718c-0.4896,0 -0.8646,0.0417 -1.125,0.125c-0.2604,0.0729 -0.4375,0.2292 -0.5313,0.4688c-0.0937,0.2291 -0.1406,0.5781 -0.1406,1.0469c0,0.4687 0.0573,0.8229 0.1719,1.0625c0.1146,0.2291 0.3281,0.3854 0.6406,0.4687c0.3229,0.0833 0.7865,0.125 1.3907,0.125zM179.09415,158.53026c-0.6875,0 -1.25,-0.0729 -1.6875,-0.2188c-0.4271,-0.1562 -0.7552,-0.3802 -0.9844,-0.6718c-0.2187,-0.3021 -0.3697,-0.6875 -0.4531,-1.1563c-0.0729,-0.4687 -0.1093,-1.026 -0.1093,-1.6719v-5.9531h1.5312v5.4375c0,0.625 0.0208,1.1302 0.0625,1.5157c0.0521,0.3854 0.1615,0.677 0.3281,0.875c0.1667,0.1875 0.4063,0.3125 0.7188,0.375c0.3125,0.0625 0.7187,0.0937 1.2187,0.0937c0.625,0 1.1094,-0.0729 1.4532,-0.2187c0.3437,-0.1563 0.5937,-0.3803 0.75,-0.6719c0.1562,-0.3021 0.2552,-0.6615 0.2968,-1.0781c0.0521,-0.4167 0.0782,-0.8907 0.0782,-1.4219v-4.9063h1.5v9.5157h-1.3594l-0.0469,-1.3594h-0.1406c-0.125,0.2917 -0.3073,0.5521 -0.5469,0.7813c-0.2395,0.2187 -0.5729,0.3958 -1,0.5312c-0.4166,0.1354 -0.9531,0.2031 -1.6093,0.2031zM187.83175,158.37396v-8.2343h-1.9219v-1.2813h1.9219v-2.7656h1.5157v2.7656h2.2656v1.2813h-2.2656v8.2344zM197.38615,158.53026c-0.7813,0 -1.4323,-0.0469 -1.9532,-0.1406c-0.5104,-0.0938 -0.9166,-0.2448 -1.2187,-0.4532c-0.3021,-0.2187 -0.526,-0.5156 -0.6719,-0.8906c-0.1354,-0.375 -0.2239,-0.8437 -0.2656,-1.4062c-0.0312,-0.5625 -0.0469,-1.2344 -0.0469,-2.0156c0,-0.7917 0.0157,-1.4688 0.0469,-2.0313c0.0417,-0.5625 0.1302,-1.0312 0.2656,-1.4062c0.1459,-0.375 0.3698,-0.6667 0.6719,-0.875c0.3021,-0.2188 0.7084,-0.3698 1.2188,-0.4532c0.5208,-0.0937 1.1719,-0.1406 1.9531,-0.1406c0.7917,0 1.4427,0.0469 1.9531,0.1406c0.5105,0.0834 0.9167,0.2344 1.2188,0.4532c0.3125,0.2083 0.5364,0.5 0.6719,0.875c0.1458,0.375 0.2343,0.8437 0.2656,1.4062c0.0417,0.5625 0.0625,1.2396 0.0625,2.0313c0,0.7812 -0.0208,1.4531 -0.0625,2.0156c-0.0313,0.5625 -0.1198,1.0313 -0.2656,1.4063c-0.1354,0.375 -0.3594,0.6718 -0.6719,0.8906c-0.3021,0.2083 -0.7083,0.3594 -1.2187,0.4531c-0.5105,0.0938 -1.1615,0.1406 -1.9532,0.1406zM197.38615,157.23336c0.6666,0 1.1823,-0.0417 1.5468,-0.125c0.3646,-0.0937 0.6198,-0.2604 0.7657,-0.5c0.1562,-0.25 0.25,-0.6146 0.2812,-1.0937c0.0313,-0.4792 0.0469,-1.1094 0.0469,-1.8907c0,-0.7916 -0.0156,-1.427 -0.0469,-1.9062c-0.0312,-0.4792 -0.125,-0.8385 -0.2812,-1.0781c-0.1458,-0.25 -0.4011,-0.4167 -0.7656,-0.5c-0.3646,-0.0938 -0.8802,-0.1407 -1.5469,-0.1407c-0.6563,0 -1.1719,0.0469 -1.5469,0.1407c-0.3646,0.0833 -0.625,0.25 -0.7812,0.5c-0.1459,0.2396 -0.2396,0.5989 -0.2813,1.0781c-0.0312,0.4792 -0.0468,1.1146 -0.0468,1.9063c0,0.7812 0.0156,1.4114 0.0468,1.8906c0.0417,0.4792 0.1355,0.8437 0.2813,1.0937c0.1562,0.2396 0.4167,0.4063 0.7812,0.5c0.375,0.0834 0.8907,0.125 1.5469,0.125zM204.38515,162.09276v-13.2344h1.375l0.0625,1.3594h0.1094c0.1875,-0.4167 0.4427,-0.7344 0.7656,-0.9531c0.3229,-0.2292 0.6875,-0.375 1.0938,-0.4375c0.4166,-0.0729 0.8385,-0.1094 1.2656,-0.1094c0.6875,0 1.2552,0.0729 1.7031,0.2188c0.4583,0.1458 0.8177,0.4062 1.0781,0.7812c0.2605,0.3646 0.448,0.8646 0.5625,1.5c0.1146,0.625 0.1719,1.4167 0.1719,2.375c0,0.9688 -0.0521,1.776 -0.1562,2.4219c-0.1042,0.6354 -0.2917,1.1354 -0.5625,1.5c-0.2604,0.3646 -0.6146,0.625 -1.0625,0.7812c-0.4479,0.1563 -1.0104,0.2344 -1.6875,0.2344c-0.5104,0 -0.9688,-0.0417 -1.375,-0.125c-0.3959,-0.0833 -0.7396,-0.2239 -1.0313,-0.4219c-0.2916,-0.1979 -0.5208,-0.4739 -0.6875,-0.8281h-0.0937v4.9375zM208.46325,157.15526c0.5729,0 1.0313,-0.0365 1.375,-0.1094c0.3438,-0.0729 0.599,-0.2292 0.7657,-0.4687c0.177,-0.25 0.2968,-0.6042 0.3593,-1.0625c0.0625,-0.4688 0.0938,-1.099 0.0938,-1.8907c0,-0.802 -0.0313,-1.4375 -0.0938,-1.9062c-0.0625,-0.4792 -0.1823,-0.8333 -0.3593,-1.0625c-0.1667,-0.2396 -0.4219,-0.401 -0.7657,-0.4844c-0.3437,-0.0833 -0.802,-0.125 -1.375,-0.125c-0.6354,0 -1.1354,0.0938 -1.5,0.2813c-0.3645,0.1771 -0.6302,0.4583 -0.7968,0.8437c-0.125,0.3021 -0.198,0.6615 -0.2188,1.0782c-0.0208,0.4062 -0.0312,0.8645 -0.0312,1.375c0,0.5208 0.0104,0.9791 0.0312,1.375c0.0208,0.3854 0.0833,0.7083 0.1875,0.9687c0.1771,0.4375 0.4479,0.7448 0.8125,0.9219c0.375,0.1771 0.8802,0.2656 1.5156,0.2656zM215.39235,158.37396v-13.8593h1.5313v13.8593zM222.67795,158.53026c-0.698,0 -1.2813,-0.0781 -1.75,-0.2344c-0.4584,-0.1667 -0.8021,-0.4479 -1.0313,-0.8437c-0.2292,-0.4063 -0.3437,-0.9688 -0.3437,-1.6875c0,-0.7188 0.0833,-1.2865 0.25,-1.7032c0.1666,-0.4166 0.4583,-0.7135 0.875,-0.8906c0.427,-0.1771 1.0208,-0.2656 1.7812,-0.2656c0.125,0 0.3177,0.0052 0.5781,0.0156c0.2709,0 0.5782,0.0052 0.9219,0.0157c0.3542,0.0104 0.7083,0.0208 1.0625,0.0312c0.3542,0 0.6823,0.0052 0.9844,0.0156v-0.5937c0,-0.5625 -0.0365,-1 -0.1094,-1.3125c-0.0625,-0.3229 -0.2031,-0.5625 -0.4219,-0.7188c-0.2083,-0.1562 -0.5052,-0.2552 -0.8906,-0.2968c-0.375,-0.0417 -0.8698,-0.0625 -1.4843,-0.0625c-0.2813,0 -0.6094,0.0104 -0.9844,0.0312c-0.3646,0.0104 -0.724,0.0313 -1.0781,0.0625c-0.3542,0.0313 -0.6407,0.0677 -0.8594,0.1094v-1.2344c0.4792,-0.0833 1.0104,-0.1458 1.5937,-0.1875c0.5938,-0.0416 1.2084,-0.0625 1.8438,-0.0625c0.6667,0 1.2344,0.0417 1.7031,0.125c0.4688,0.073 0.849,0.198 1.1407,0.375c0.2916,0.1667 0.5104,0.3959 0.6562,0.6875c0.1563,0.2813 0.2604,0.6302 0.3125,1.0469c0.0625,0.4063 0.0938,0.8854 0.0938,1.4375v5.9844h-1.375l-0.0469,-1.3438h-0.1094c-0.2083,0.4375 -0.4948,0.7657 -0.8594,0.9844c-0.3645,0.2188 -0.7656,0.3594 -1.2031,0.4219c-0.4375,0.0625 -0.8541,0.0938 -1.25,0.0938zM223.24045,157.28026c0.3645,0 0.6979,-0.0208 1,-0.0625c0.3125,-0.0521 0.5885,-0.1406 0.8281,-0.2656c0.2396,-0.125 0.4271,-0.3125 0.5625,-0.5625c0.1354,-0.2605 0.2292,-0.5417 0.2812,-0.8438c0.0625,-0.3021 0.0938,-0.6614 0.0938,-1.0781v-0.4844h-3.1719c-0.4896,0 -0.8646,0.0417 -1.125,0.125c-0.2604,0.0729 -0.4375,0.2292 -0.5312,0.4688c-0.0938,0.2291 -0.1407,0.5781 -0.1407,1.0469c0,0.4687 0.0573,0.8229 0.1719,1.0625c0.1146,0.2291 0.3281,0.3854 0.6406,0.4687c0.323,0.0833 0.7865,0.125 1.3907,0.125zM234.40265,162.21776c-0.3645,0 -0.7447,-0.0104 -1.1406,-0.0313c-0.3854,-0.0208 -0.7552,-0.0416 -1.1094,-0.0625c-0.3541,-0.0104 -0.6666,-0.0364 -0.9375,-0.0781v-1.2031c0.4063,0.0104 0.7813,0.0208 1.125,0.0312c0.3438,0.0209 0.6615,0.0365 0.9532,0.0469c0.2916,0.0104 0.5521,0.0157 0.7812,0.0157c0.7292,0 1.3021,-0.0573 1.7188,-0.1719c0.4166,-0.1146 0.7239,-0.3021 0.9219,-0.5625c0.1979,-0.25 0.3229,-0.5886 0.375,-1.0156c0.0625,-0.4167 0.0937,-0.9323 0.0937,-1.5469v-0.5469h-0.125c-0.0937,0.2396 -0.2604,0.4688 -0.5,0.6875c-0.2292,0.2084 -0.5521,0.375 -0.9687,0.5c-0.4063,0.125 -0.9428,0.1875 -1.6094,0.1875c-0.6875,0 -1.25,-0.0677 -1.6875,-0.2031c-0.4271,-0.1458 -0.7552,-0.3698 -0.9844,-0.6719c-0.2187,-0.3125 -0.3698,-0.6979 -0.4531,-1.1562c-0.0729,-0.4583 -0.1094,-1.0052 -0.1094,-1.6406v-5.9375h1.5313v5.3906c0,0.6458 0.0208,1.1615 0.0625,1.5469c0.0521,0.3854 0.1614,0.6771 0.3281,0.875c0.1667,0.1875 0.4063,0.3125 0.7188,0.375c0.3125,0.0625 0.7187,0.0937 1.2187,0.0937c0.625,0 1.1094,-0.0781 1.4531,-0.2343c0.3438,-0.1563 0.5938,-0.3803 0.75,-0.6719c0.1563,-0.3021 0.2552,-0.6615 0.2969,-1.0781c0.0521,-0.4167 0.0781,-0.8855 0.0781,-1.4063v-4.8906h1.5v8.3437c0,0.9063 -0.0468,1.6771 -0.1406,2.3125c-0.0937,0.6459 -0.2864,1.1615 -0.5781,1.5469c-0.2917,0.3959 -0.724,0.6875 -1.2969,0.875c-0.5729,0.1875 -1.3281,0.2813 -2.2656,0.2813z"/><path d="M165.49435,180.77396v-12.8281h1.6094v12.8281zM170.83005,180.77396v-12.8281h1.6407l6.6719,9.8281h0.0781v-9.8281h1.5469v12.8281h-1.5469l-6.7656,-10.0156h-0.0625v10.0157z"/><path d="M164.15065,203.17396l4.8594,-12.8281h2.0156l4.8281,12.8281h-1.6562l-1.3281,-3.5h-5.7656l-1.3282,3.5zM167.58815,198.26776h4.7969l-2.3438,-6.2813h-0.0937zM179.69855,203.17396v-11.4219h-4.0468v-1.4062h9.7187v1.4062h-4.0625v11.4219z"/><path d="M169.77565,225.73026c-0.4583,0 -0.9635,-0.0157 -1.5156,-0.0469c-0.5417,-0.0209 -1.0729,-0.0521 -1.5938,-0.0938c-0.5208,-0.0312 -0.9896,-0.0729 -1.4062,-0.125v-1.3593c0.4479,0.0312 0.9166,0.0677 1.4062,0.1093c0.4896,0.0313 0.9688,0.0625 1.4375,0.0938c0.4688,0.0208 0.8646,0.0312 1.1875,0.0312c0.6563,0 1.1823,-0.026 1.5782,-0.0781c0.3958,-0.0625 0.7343,-0.1719 1.0156,-0.3281c0.1875,-0.1146 0.3229,-0.2656 0.4062,-0.4531c0.0834,-0.1875 0.1355,-0.4011 0.1563,-0.6406c0.0208,-0.25 0.0312,-0.5209 0.0312,-0.8125c0,-0.4167 -0.0156,-0.7553 -0.0468,-1.0157c-0.0209,-0.2708 -0.0834,-0.4739 -0.1875,-0.6093c-0.1042,-0.1459 -0.2761,-0.25 -0.5156,-0.3125c-0.2292,-0.073 -0.5469,-0.1302 -0.9532,-0.1719l-3.1875,-0.3438c-0.5937,-0.0833 -1.0729,-0.2135 -1.4375,-0.3906c-0.3541,-0.1771 -0.625,-0.4062 -0.8125,-0.6875c-0.1771,-0.2812 -0.2968,-0.6146 -0.3593,-1c-0.0625,-0.3958 -0.0938,-0.8385 -0.0938,-1.3281c0,-0.7812 0.099,-1.4062 0.2969,-1.875c0.2083,-0.4792 0.5104,-0.8437 0.9062,-1.0937c0.4063,-0.25 0.8907,-0.4115 1.4532,-0.4844c0.5625,-0.0833 1.2135,-0.125 1.9531,-0.125c0.4688,0 0.9531,0.0156 1.4531,0.0469c0.5,0.0208 0.9688,0.052 1.4063,0.0937c0.4479,0.0417 0.8125,0.0938 1.0937,0.1563v1.3281c-0.3229,-0.0521 -0.6979,-0.0938 -1.125,-0.125c-0.4166,-0.0417 -0.8489,-0.0729 -1.2968,-0.0938c-0.4375,-0.0208 -0.8542,-0.0312 -1.25,-0.0312c-0.6875,0 -1.2448,0.0312 -1.6719,0.0937c-0.4167,0.0625 -0.75,0.1771 -1,0.3438c-0.2708,0.1562 -0.4427,0.3802 -0.5156,0.6719c-0.0625,0.2916 -0.0938,0.6458 -0.0938,1.0625c0,0.4791 0.0313,0.8541 0.0938,1.125c0.0729,0.2708 0.2239,0.4583 0.4531,0.5625c0.2292,0.1041 0.5729,0.1823 1.0313,0.2344l3.125,0.3593c0.4479,0.0313 0.8385,0.0886 1.1718,0.1719c0.3438,0.0833 0.6407,0.2188 0.8907,0.4063c0.25,0.177 0.4375,0.4427 0.5625,0.7968c0.0729,0.1771 0.125,0.3698 0.1562,0.5782c0.0417,0.2083 0.0729,0.4427 0.0938,0.7031c0.0208,0.25 0.0312,0.5313 0.0312,0.8438c0,0.7083 -0.0677,1.2968 -0.2031,1.7656c-0.1354,0.4687 -0.3281,0.8385 -0.5781,1.1094c-0.25,0.2708 -0.5573,0.4739 -0.9219,0.6093c-0.3542,0.1355 -0.7552,0.224 -1.2031,0.2657c-0.4375,0.0416 -0.9115,0.0625 -1.4219,0.0625zM177.21055,225.57396v-12.8281h5.625c0.8229,0 1.4792,0.1041 1.9687,0.3125c0.4896,0.1979 0.8542,0.4791 1.0938,0.8437c0.2396,0.3542 0.401,0.7813 0.4844,1.2813c0.0937,0.4896 0.1406,1.026 0.1406,1.6094c0,0.552 -0.0417,1.0781 -0.125,1.5781c-0.0729,0.4896 -0.2344,0.9219 -0.4844,1.2969c-0.25,0.3645 -0.625,0.6562 -1.125,0.875c-0.5,0.2083 -1.1667,0.3125 -2,0.3125h-3.9687v4.7187zM178.81985,219.44896h3.4532c0.6041,0 1.0833,-0.0469 1.4375,-0.1406c0.3646,-0.1042 0.6302,-0.2656 0.7968,-0.4844c0.1771,-0.2187 0.2917,-0.4948 0.3438,-0.8281c0.0521,-0.3333 0.0781,-0.7344 0.0781,-1.2031c0,-0.4792 -0.026,-0.8855 -0.0781,-1.2188c-0.0417,-0.3333 -0.1458,-0.6042 -0.3125,-0.8125c-0.1667,-0.2187 -0.4271,-0.3802 -0.7812,-0.4844c-0.3542,-0.1041 -0.8386,-0.1562 -1.4532,-0.1562h-3.4843z"/><path d="M165.49435,247.97396v-12.8281h1.6094v5.6406h6.7188v-5.6406h1.6094v12.8281h-1.6094v-5.7656h-6.7188v5.7656zM179.13215,247.97396v-12.8281h4.0781c1.0521,0 1.9115,0.052 2.5781,0.1562c0.6771,0.0938 1.2084,0.2708 1.5938,0.5313c0.3958,0.2604 0.6875,0.6354 0.875,1.125c0.1875,0.4791 0.3073,1.0937 0.3594,1.8437c0.052,0.7396 0.0781,1.6563 0.0781,2.75c0,1.0938 -0.026,2.0156 -0.0781,2.7656c-0.0521,0.75 -0.1719,1.3698 -0.3594,1.8594c-0.1875,0.4792 -0.4792,0.849 -0.875,1.1094c-0.3854,0.2604 -0.9167,0.4427 -1.5937,0.5469c-0.6667,0.0937 -1.5261,0.1406 -2.5782,0.1406zM180.74145,246.59896h2.2032c0.7812,0 1.4271,-0.0208 1.9375,-0.0625c0.5104,-0.0417 0.9114,-0.1354 1.2031,-0.2813c0.3021,-0.1562 0.5208,-0.4114 0.6563,-0.7656c0.1458,-0.3542 0.2395,-0.8489 0.2812,-1.4844c0.0417,-0.6354 0.0625,-1.4531 0.0625,-2.4531c0,-0.9896 -0.0208,-1.7968 -0.0625,-2.4218c-0.0417,-0.6355 -0.1354,-1.1303 -0.2812,-1.4844c-0.1459,-0.3646 -0.3698,-0.625 -0.6719,-0.7813c-0.2917,-0.1562 -0.6927,-0.25 -1.2031,-0.2812c-0.5,-0.0417 -1.1407,-0.0625 -1.9219,-0.0625h-2.2031z"/><path d="M165.49435,270.37396v-12.8281h8.3438v1.375h-6.7344v4.2656h5.8594v1.4062h-5.8594v4.4063h6.7344v1.375zM175.86915,270.37396v-1.3281l7.25,-10.125h-7.0469v-1.375h9.0781v1.2812l-7.2656,10.1719h7.375v1.375z"/><path d="M309.61965,157.38336v-12.8281h1.6406l6.6719,9.8281h0.0781v-9.8281h1.5469v12.8281h-1.5468l-6.7657,-10.0156h-0.0625v10.0156zM323.25745,157.38336v-12.8281h8.3437v1.375h-6.7344v4.2656h5.8594v1.4063h-5.8593v4.4062h6.7343v1.375zM336.80395,157.38336l-3.4843,-12.8281h1.6406l2.8594,10.7344h0.1094l3.125,-10.7344h1.6875l3.1562,10.7344h0.1094l2.7812,-10.7344h1.5938l-3.4844,12.8281h-1.9062l-3.0938,-10.3906h-0.0781l-3.0938,10.3906zM357.30505,157.38336v-12.8281h5.9688c0.8542,0 1.526,0.1302 2.0156,0.3906c0.5,0.2604 0.8542,0.6302 1.0625,1.1094c0.2188,0.4792 0.3282,1.0521 0.3282,1.7187c0,0.5521 -0.0782,1.0365 -0.2344,1.4532c-0.1458,0.4166 -0.3802,0.7552 -0.7031,1.0156c-0.3125,0.2604 -0.7292,0.4479 -1.25,0.5625v0.0625c0.6354,0.1146 1.1198,0.3177 1.4531,0.6094c0.3333,0.2917 0.5625,0.6562 0.6875,1.0937c0.125,0.4375 0.1875,0.9167 0.1875,1.4375c0,0.448 -0.0521,0.8802 -0.1563,1.2969c-0.1041,0.4063 -0.2864,0.7656 -0.5468,1.0781c-0.25,0.3021 -0.6146,0.5469 -1.0938,0.7344c-0.4687,0.1771 -1.0729,0.2657 -1.8125,0.2657zM358.91445,156.00836h3.9219c0.6042,0 1.0781,-0.0729 1.4219,-0.2187c0.3541,-0.1459 0.6041,-0.3803 0.75,-0.7032c0.1458,-0.3333 0.2187,-0.7604 0.2187,-1.2812c0,-0.5417 -0.0781,-0.974 -0.2344,-1.2969c-0.1562,-0.3333 -0.4114,-0.5677 -0.7656,-0.7031c-0.3437,-0.1458 -0.8073,-0.2188 -1.3906,-0.2188h-3.9219zM358.91445,150.18026h3.8438c0.5208,0 0.9531,-0.0729 1.2968,-0.2188c0.3438,-0.1562 0.599,-0.3906 0.7657,-0.7031c0.1666,-0.3125 0.25,-0.7083 0.25,-1.1875c0,-0.5208 -0.0677,-0.9375 -0.2032,-1.25c-0.125,-0.3125 -0.3541,-0.5364 -0.6875,-0.6719c-0.3333,-0.1458 -0.8072,-0.2187 -1.4218,-0.2187h-3.8438zM370.02865,157.38336v-12.8281h8.3438v1.375h-6.7344v4.2656h5.8594v1.4063h-5.8594v4.4062h6.7344v1.375zM385.55965,157.53966c-0.4584,0 -0.9636,-0.0157 -1.5157,-0.0469c-0.5416,-0.0208 -1.0729,-0.0521 -1.5937,-0.0938c-0.5208,-0.0312 -0.9896,-0.0729 -1.4063,-0.125v-1.3593c0.448,0.0312 0.9167,0.0677 1.4063,0.1093c0.4896,0.0313 0.9687,0.0625 1.4375,0.0938c0.4687,0.0208 0.8646,0.0312 1.1875,0.0312c0.6562,0 1.1823,-0.026 1.5781,-0.0781c0.3958,-0.0625 0.7344,-0.1718 1.0156,-0.3281c0.1875,-0.1146 0.323,-0.2656 0.4063,-0.4531c0.0833,-0.1875 0.1354,-0.4011 0.1562,-0.6406c0.0209,-0.25 0.0313,-0.5209 0.0313,-0.8125c0,-0.4167 -0.0156,-0.7552 -0.0469,-1.0157c-0.0208,-0.2708 -0.0833,-0.4739 -0.1875,-0.6093c-0.1042,-0.1459 -0.276,-0.25 -0.5156,-0.3125c-0.2292,-0.0729 -0.5469,-0.1302 -0.9531,-0.1719l-3.1875,-0.3437c-0.5938,-0.0834 -1.0729,-0.2136 -1.4375,-0.3907c-0.3542,-0.177 -0.625,-0.4062 -0.8125,-0.6875c-0.1771,-0.2812 -0.2969,-0.6145 -0.3594,-1c-0.0625,-0.3958 -0.0937,-0.8385 -0.0937,-1.3281c0,-0.7812 0.0989,-1.4062 0.2968,-1.875c0.2084,-0.4792 0.5105,-0.8437 0.9063,-1.0937c0.4062,-0.25 0.8906,-0.4115 1.4531,-0.4844c0.5625,-0.0833 1.2136,-0.125 1.9531,-0.125c0.4688,0 0.9532,0.0156 1.4532,0.0469c0.5,0.0208 0.9687,0.0521 1.4062,0.0937c0.4479,0.0417 0.8125,0.0938 1.0938,0.1563v1.3281c-0.3229,-0.0521 -0.6979,-0.0937 -1.125,-0.125c-0.4167,-0.0417 -0.849,-0.0729 -1.2969,-0.0937c-0.4375,-0.0209 -0.8542,-0.0313 -1.25,-0.0313c-0.6875,0 -1.2448,0.0313 -1.6719,0.0938c-0.4166,0.0625 -0.75,0.177 -1,0.3437c-0.2708,0.1563 -0.4427,0.3802 -0.5156,0.6719c-0.0625,0.2917 -0.0937,0.6458 -0.0937,1.0625c0,0.4792 0.0312,0.8542 0.0937,1.125c0.0729,0.2708 0.224,0.4583 0.4531,0.5625c0.2292,0.1042 0.573,0.1823 1.0313,0.2344l3.125,0.3593c0.4479,0.0313 0.8385,0.0886 1.1719,0.1719c0.3437,0.0834 0.6406,0.2188 0.8906,0.4063c0.25,0.1771 0.4375,0.4427 0.5625,0.7969c0.0729,0.177 0.125,0.3697 0.1563,0.5781c0.0416,0.2083 0.0729,0.4427 0.0937,0.7031c0.0208,0.25 0.0313,0.5313 0.0313,0.8438c0,0.7083 -0.0678,1.2968 -0.2032,1.7656c-0.1354,0.4687 -0.3281,0.8385 -0.5781,1.1094c-0.25,0.2708 -0.5573,0.4739 -0.9219,0.6094c-0.3541,0.1354 -0.7552,0.2239 -1.2031,0.2656c-0.4375,0.0417 -0.9114,0.0625 -1.4218,0.0625zM395.74445,157.38336v-11.4219h-4.0468v-1.4062h9.7187v1.4062h-4.0625v11.4219z"/><path d="M310.16655,179.78336v-8.2344h-1.9219v-1.2812h1.9219v-2.7656h1.5156v2.7656h2.2656v1.2812h-2.2656v8.2344zM316.00175,167.58026v-1.6563h1.625v1.6563zM316.04865,179.78336v-9.5156h1.5312v9.5156zM320.78735,183.50206v-13.2343h1.375l0.0625,1.3594h0.1093c0.1875,-0.4167 0.4428,-0.7344 0.7657,-0.9532c0.3229,-0.2291 0.6875,-0.375 1.0937,-0.4375c0.4167,-0.0729 0.8386,-0.1093 1.2657,-0.1093c0.6875,0 1.2552,0.0729 1.7031,0.2187c0.4583,0.1458 0.8177,0.4063 1.0781,0.7813c0.2604,0.3645 0.4479,0.8645 0.5625,1.5c0.1146,0.625 0.1719,1.4166 0.1719,2.375c0,0.9687 -0.0521,1.776 -0.1563,2.4218c-0.1041,0.6355 -0.2916,1.1355 -0.5625,1.5c-0.2604,0.3646 -0.6145,0.625 -1.0625,0.7813c-0.4479,0.1562 -1.0104,0.2344 -1.6875,0.2344c-0.5104,0 -0.9687,-0.0417 -1.375,-0.125c-0.3958,-0.0834 -0.7395,-0.224 -1.0312,-0.4219c-0.2917,-0.1979 -0.5208,-0.474 -0.6875,-0.8281h-0.0938v4.9375zM324.86545,178.56456c0.5729,0 1.0313,-0.0364 1.375,-0.1093c0.3438,-0.0729 0.599,-0.2292 0.7656,-0.4688c0.1771,-0.25 0.2969,-0.6041 0.3594,-1.0625c0.0625,-0.4687 0.0938,-1.0989 0.0938,-1.8906c0,-0.8021 -0.0313,-1.4375 -0.0938,-1.9062c-0.0625,-0.4792 -0.1823,-0.8334 -0.3594,-1.0625c-0.1666,-0.2396 -0.4218,-0.4011 -0.7656,-0.4844c-0.3437,-0.0833 -0.8021,-0.125 -1.375,-0.125c-0.6354,0 -1.1354,0.0937 -1.5,0.2812c-0.3646,0.1771 -0.6302,0.4584 -0.7969,0.8438c-0.125,0.3021 -0.1979,0.6614 -0.2187,1.0781c-0.0208,0.4063 -0.0313,0.8646 -0.0313,1.375c0,0.5208 0.0105,0.9792 0.0313,1.375c0.0208,0.3854 0.0833,0.7083 0.1875,0.9688c0.1771,0.4375 0.4479,0.7448 0.8125,0.9218c0.375,0.1771 0.8802,0.2657 1.5156,0.2657zM334.96635,179.93956c-0.3646,0 -0.7552,-0.0156 -1.1719,-0.0468c-0.4062,-0.0209 -0.8073,-0.0469 -1.2031,-0.0781c-0.3958,-0.0313 -0.7552,-0.073 -1.0781,-0.125v-1.2344c0.2916,0.0312 0.5781,0.0573 0.8594,0.0781c0.2812,0.0208 0.5572,0.0417 0.8281,0.0625c0.2812,0.0208 0.5573,0.0365 0.8281,0.0469c0.2708,0 0.5521,0 0.8438,0c0.6458,0 1.1145,-0.0469 1.4062,-0.1406c0.2917,-0.0938 0.4844,-0.25 0.5781,-0.4688c0.0938,-0.2291 0.1407,-0.5208 0.1407,-0.875c0,-0.4166 -0.0365,-0.7187 -0.1094,-0.9062c-0.0625,-0.1875 -0.1823,-0.3073 -0.3594,-0.3594c-0.1666,-0.0521 -0.4166,-0.099 -0.75,-0.1406l-2.4531,-0.2813c-0.5937,-0.0625 -1.0417,-0.1875 -1.3437,-0.375c-0.2917,-0.1979 -0.4948,-0.4739 -0.6094,-0.8281c-0.1042,-0.3646 -0.1563,-0.8229 -0.1563,-1.375c0,-0.6146 0.0834,-1.1094 0.25,-1.4844c0.1771,-0.375 0.4271,-0.6562 0.75,-0.8437c0.323,-0.1875 0.7136,-0.3073 1.1719,-0.3594c0.4688,-0.0521 0.9844,-0.0781 1.5469,-0.0781c0.3333,0 0.6771,0.0104 1.0313,0.0313c0.3645,0.0208 0.7187,0.052 1.0625,0.0937c0.3541,0.0313 0.6562,0.0729 0.9062,0.125v1.2344c-0.3333,-0.0521 -0.6667,-0.0938 -1,-0.125c-0.3229,-0.0313 -0.6562,-0.0521 -1,-0.0625c-0.3333,-0.0104 -0.6771,-0.0156 -1.0312,-0.0156c-0.4688,0 -0.875,0.026 -1.2188,0.0781c-0.3333,0.0417 -0.5833,0.1667 -0.75,0.375c-0.1667,0.1979 -0.25,0.526 -0.25,0.9844c0,0.3541 0.026,0.625 0.0781,0.8125c0.0625,0.1771 0.1771,0.3021 0.3438,0.375c0.1771,0.0625 0.4219,0.1146 0.7344,0.1562l2.5781,0.2813c0.5104,0.0416 0.9115,0.1354 1.2031,0.2812c0.2917,0.1459 0.5,0.4011 0.625,0.7657c0.1354,0.3541 0.2032,0.8906 0.2032,1.6093c0,0.6042 -0.073,1.0886 -0.2188,1.4532c-0.1458,0.3645 -0.3698,0.6458 -0.6719,0.8437c-0.2916,0.1979 -0.6562,0.3333 -1.0937,0.4063c-0.4271,0.0729 -0.9271,0.1093 -1.5,0.1093zM345.06635,172.09586v-1.8281h1.7812v1.8281zM345.06635,179.78336v-1.8281h1.7812v1.8281z"/><path d="M309.36965,202.18336v-13.8594h1.5313v13.8594zM317.87395,202.33956c-0.7812,0 -1.4322,-0.0468 -1.9531,-0.1406c-0.5104,-0.0937 -0.9166,-0.2448 -1.2187,-0.4531c-0.3021,-0.2187 -0.5261,-0.5156 -0.6719,-0.8906c-0.1354,-0.375 -0.224,-0.8438 -0.2656,-1.4063c-0.0313,-0.5625 -0.0469,-1.2343 -0.0469,-2.0156c0,-0.7917 0.0156,-1.4687 0.0469,-2.0312c0.0417,-0.5625 0.1302,-1.0313 0.2656,-1.4063c0.1459,-0.375 0.3698,-0.6667 0.6719,-0.875c0.3021,-0.2187 0.7083,-0.3698 1.2188,-0.4531c0.5208,-0.0938 1.1718,-0.1406 1.9531,-0.1406c0.7917,0 1.4427,0.0469 1.9531,0.1406c0.5104,0.0833 0.9167,0.2344 1.2188,0.4531c0.3125,0.2084 0.5364,0.5 0.6718,0.875c0.1459,0.375 0.2344,0.8438 0.2657,1.4063c0.0416,0.5625 0.0625,1.2396 0.0625,2.0312c0,0.7813 -0.0209,1.4532 -0.0625,2.0157c-0.0313,0.5625 -0.1198,1.0312 -0.2656,1.4062c-0.1355,0.375 -0.3594,0.6719 -0.6719,0.8906c-0.3021,0.2084 -0.7083,0.3594 -1.2188,0.4532c-0.5104,0.0937 -1.1614,0.1406 -1.9531,0.1406zM317.87395,201.04276c0.6667,0 1.1823,-0.0417 1.5469,-0.125c0.3646,-0.0938 0.6198,-0.2604 0.7657,-0.5c0.1562,-0.25 0.25,-0.6146 0.2812,-1.0938c0.0313,-0.4791 0.0469,-1.1093 0.0469,-1.8906c0,-0.7917 -0.0156,-1.4271 -0.0469,-1.9062c-0.0312,-0.4792 -0.125,-0.8386 -0.2812,-1.0782c-0.1459,-0.25 -0.4011,-0.4166 -0.7657,-0.5c-0.3645,-0.0937 -0.8802,-0.1406 -1.5468,-0.1406c-0.6563,0 -1.1719,0.0469 -1.5469,0.1406c-0.3646,0.0834 -0.625,0.25 -0.7812,0.5c-0.1459,0.2396 -0.2396,0.599 -0.2813,1.0782c-0.0312,0.4791 -0.0469,1.1146 -0.0469,1.9062c0,0.7813 0.0157,1.4115 0.0469,1.8907c0.0417,0.4791 0.1354,0.8437 0.2813,1.0937c0.1562,0.2396 0.4166,0.4063 0.7812,0.5c0.375,0.0833 0.8906,0.125 1.5469,0.125zM327.41985,202.33956c-0.6979,0 -1.2812,-0.0781 -1.75,-0.2343c-0.4583,-0.1667 -0.802,-0.4479 -1.0312,-0.8438c-0.2292,-0.4062 -0.3438,-0.9687 -0.3438,-1.6875c0,-0.7187 0.0834,-1.2864 0.25,-1.7031c0.1667,-0.4167 0.4584,-0.7135 0.875,-0.8906c0.4271,-0.1771 1.0209,-0.2656 1.7813,-0.2656c0.125,0 0.3177,0.0052 0.5781,0.0156c0.2709,0 0.5782,0.0052 0.9219,0.0156c0.3542,0.0104 0.7083,0.0209 1.0625,0.0313c0.3542,0 0.6823,0.0052 0.9844,0.0156v-0.5937c0,-0.5625 -0.0365,-1 -0.1094,-1.3125c-0.0625,-0.323 -0.2031,-0.5625 -0.4219,-0.7188c-0.2083,-0.1562 -0.5052,-0.2552 -0.8906,-0.2969c-0.375,-0.0416 -0.8698,-0.0625 -1.4844,-0.0625c-0.2812,0 -0.6093,0.0105 -0.9843,0.0313c-0.3646,0.0104 -0.724,0.0312 -1.0781,0.0625c-0.3542,0.0312 -0.6407,0.0677 -0.8594,0.1094v-1.2344c0.4792,-0.0833 1.0104,-0.1458 1.5937,-0.1875c0.5938,-0.0417 1.2084,-0.0625 1.8438,-0.0625c0.6667,0 1.2344,0.0417 1.7031,0.125c0.4688,0.0729 0.849,0.1979 1.1406,0.375c0.2917,0.1667 0.5105,0.3958 0.6563,0.6875c0.1562,0.2812 0.2604,0.6302 0.3125,1.0469c0.0625,0.4062 0.0937,0.8854 0.0937,1.4375v5.9844h-1.375l-0.0468,-1.3438h-0.1094c-0.2083,0.4375 -0.4948,0.7656 -0.8594,0.9844c-0.3645,0.2187 -0.7656,0.3594 -1.2031,0.4219c-0.4375,0.0625 -0.8542,0.0937 -1.25,0.0937zM327.98235,201.08956c0.3646,0 0.698,-0.0208 1,-0.0625c0.3125,-0.052 0.5886,-0.1406 0.8282,-0.2656c0.2396,-0.125 0.4271,-0.3125 0.5625,-0.5625c0.1354,-0.2604 0.2291,-0.5416 0.2812,-0.8437c0.0625,-0.3021 0.0938,-0.6615 0.0938,-1.0781v-0.4844h-3.1719c-0.4896,0 -0.8646,0.0417 -1.125,0.125c-0.2604,0.0729 -0.4375,0.2292 -0.5312,0.4687c-0.0938,0.2292 -0.1407,0.5782 -0.1407,1.0469c0,0.4688 0.0573,0.8229 0.1719,1.0625c0.1146,0.2292 0.3281,0.3854 0.6406,0.4688c0.323,0.0833 0.7865,0.125 1.3907,0.125zM338.59785,202.33956c-0.6875,0 -1.2605,-0.0729 -1.7188,-0.2187c-0.4479,-0.1563 -0.8021,-0.4167 -1.0625,-0.7813c-0.2604,-0.375 -0.4479,-0.875 -0.5625,-1.5c-0.1042,-0.6354 -0.1562,-1.4322 -0.1562,-2.3906c0,-0.9687 0.052,-1.7708 0.1562,-2.4062c0.1042,-0.6459 0.2865,-1.1511 0.5469,-1.5156c0.2604,-0.3646 0.6146,-0.6198 1.0625,-0.7657c0.4479,-0.1562 1.0156,-0.2343 1.7031,-0.2343c0.5104,0 0.9636,0.0416 1.3594,0.125c0.3958,0.0729 0.7396,0.2083 1.0312,0.4062c0.2917,0.1979 0.5261,0.474 0.7032,0.8281h0.0937v-5.5625h1.5313v13.8594h-1.3594l-0.0781,-1.3593h-0.1094c-0.1771,0.4375 -0.4323,0.7656 -0.7656,0.9843c-0.3229,0.2084 -0.6927,0.349 -1.1094,0.4219c-0.4062,0.0729 -0.8281,0.1094 -1.2656,0.1094zM339.19155,200.99586c0.6354,0 1.1406,-0.0885 1.5156,-0.2656c0.375,-0.1771 0.6355,-0.4531 0.7813,-0.8281c0.125,-0.3438 0.1979,-0.7188 0.2187,-1.125c0.0313,-0.4167 0.0469,-0.9063 0.0469,-1.4688c0,-0.4583 -0.0156,-0.875 -0.0469,-1.25c-0.0208,-0.3854 -0.0885,-0.7187 -0.2031,-1c-0.1562,-0.4271 -0.4218,-0.7292 -0.7968,-0.9062c-0.375,-0.1771 -0.8907,-0.2657 -1.5469,-0.2657c-0.5625,0 -1.0104,0.0365 -1.3438,0.1094c-0.3333,0.0729 -0.5885,0.2344 -0.7656,0.4844c-0.1771,0.2396 -0.2969,0.5937 -0.3594,1.0625c-0.0625,0.4583 -0.0937,1.0885 -0.0937,1.8906c0,0.7917 0.0312,1.4271 0.0937,1.9063c0.0625,0.4687 0.1823,0.8229 0.3594,1.0625c0.1771,0.2291 0.4323,0.3854 0.7657,0.4687c0.3437,0.0834 0.802,0.125 1.375,0.125zM346.44875,189.98026v-1.6563h1.625v1.6563zM346.49565,202.18336v-9.5156h1.5312v9.5156zM351.23425,202.18336v-9.5156h1.375l0.0625,1.3594h0.1094c0.1354,-0.2917 0.3229,-0.5469 0.5625,-0.7657c0.2396,-0.2291 0.5677,-0.4062 0.9844,-0.5312c0.4167,-0.1354 0.9531,-0.2031 1.6094,-0.2031c0.7083,0 1.2708,0.0729 1.6875,0.2187c0.4271,0.1458 0.7552,0.3698 0.9844,0.6719c0.2291,0.2917 0.3802,0.6719 0.4531,1.1406c0.0729,0.4688 0.1094,1.0261 0.1094,1.6719v5.9531h-1.5v-5.4218c0,-0.6563 -0.0313,-1.1719 -0.0938,-1.5469c-0.0521,-0.375 -0.1614,-0.6563 -0.3281,-0.8438c-0.1563,-0.1979 -0.3906,-0.3281 -0.7031,-0.3906c-0.3125,-0.0625 -0.724,-0.0937 -1.2344,-0.0937c-0.6042,0 -1.0833,0.0781 -1.4375,0.2344c-0.3437,0.1562 -0.599,0.3802 -0.7656,0.6718c-0.1563,0.2917 -0.2552,0.6459 -0.2969,1.0625c-0.0312,0.4167 -0.0469,0.8907 -0.0469,1.4219v4.9063zM365.89375,206.02706c-0.3958,0 -0.8021,-0.0104 -1.2187,-0.0312c-0.4167,-0.0208 -0.8125,-0.0417 -1.1875,-0.0625c-0.375,-0.0208 -0.6927,-0.0469 -0.9532,-0.0781v-1.2344c0.3021,0.0313 0.6303,0.0521 0.9844,0.0625c0.3646,0.0208 0.724,0.0365 1.0782,0.0469c0.3541,0.0104 0.6718,0.0156 0.9531,0.0156c0.7292,0 1.2969,-0.0521 1.7031,-0.1562c0.4167,-0.1042 0.7292,-0.2813 0.9375,-0.5313c0.2083,-0.2396 0.3386,-0.5833 0.3906,-1.0312c0.0625,-0.448 0.0938,-1.0209 0.0938,-1.7188v-0.3906h-0.0938c-0.1666,0.3437 -0.3958,0.6146 -0.6875,0.8125c-0.2812,0.1979 -0.6197,0.3385 -1.0156,0.4219c-0.3958,0.0833 -0.8489,0.125 -1.3593,0.125c-0.698,0 -1.2761,-0.0729 -1.7344,-0.2188c-0.4479,-0.1562 -0.8021,-0.4114 -1.0625,-0.7656c-0.2604,-0.3542 -0.4427,-0.849 -0.5469,-1.4844c-0.1042,-0.6354 -0.1562,-1.427 -0.1562,-2.375c0,-0.9791 0.052,-1.7812 0.1562,-2.4062c0.1146,-0.6354 0.3021,-1.1354 0.5625,-1.5c0.2604,-0.3646 0.6146,-0.6198 1.0625,-0.7656c0.4583,-0.1563 1.0365,-0.2344 1.7344,-0.2344c0.4271,0 0.8437,0.0365 1.25,0.1094c0.4167,0.0625 0.7865,0.2083 1.1094,0.4375c0.3333,0.2187 0.5885,0.5364 0.7656,0.9531h0.1094l0.0781,-1.3594h1.3594v8.2813c0,0.9271 -0.0469,1.7135 -0.1406,2.3594c-0.0938,0.6458 -0.2865,1.1666 -0.5781,1.5625c-0.2813,0.3958 -0.7084,0.6875 -1.2813,0.875c-0.5729,0.1875 -1.3437,0.2812 -2.3125,0.2812zM366.11255,200.94896c0.625,0 1.1145,-0.0833 1.4687,-0.25c0.3646,-0.1666 0.6302,-0.4323 0.7969,-0.7968c0.1354,-0.2917 0.2187,-0.6407 0.25,-1.0469c0.0312,-0.4167 0.0469,-0.9011 0.0469,-1.4531c0,-0.5209 -0.0156,-0.9792 -0.0469,-1.375c-0.0208,-0.4063 -0.099,-0.7552 -0.2344,-1.0469c-0.1666,-0.3958 -0.4375,-0.6823 -0.8125,-0.8594c-0.3645,-0.1771 -0.8541,-0.2656 -1.4687,-0.2656c-0.5729,0 -1.0313,0.0417 -1.375,0.125c-0.3333,0.0833 -0.5886,0.2448 -0.7656,0.4844c-0.1771,0.2292 -0.2969,0.5833 -0.3594,1.0625c-0.0625,0.4687 -0.0938,1.0937 -0.0938,1.875c0,0.7917 0.0313,1.4219 0.0938,1.8906c0.0625,0.4688 0.1823,0.8229 0.3594,1.0625c0.1771,0.2396 0.4323,0.4011 0.7656,0.4844c0.3438,0.0729 0.8021,0.1094 1.375,0.1094z"/></g></g></svg>