<svg version="1.1" xmlns="http://www.w3.org/2000/svg" xmlns:xlink="http://www.w3.org/1999/xlink" width="9.6562" height="13.1407" viewBox="0,0,9.6562,13.1407"><g transform="translate(-235.1719,-173.42965)"><g data-paper-data="{&quot;isPaintingLayer&quot;:true}" fill="#ff0000" fill-rule="nonzero" stroke="none" stroke-width="1" stroke-linecap="square" stroke-linejoin="miter" stroke-miterlimit="10" stroke-dasharray="" stroke-dashoffset="0" style="mix-blend-mode: normal"><path d="M240,186.57025c-0.9375,0 -1.7083,-0.0521 -2.3125,-0.1562c-0.5938,-0.1146 -1.0625,-0.3073 -1.4063,-0.5782c-0.3437,-0.2708 -0.5937,-0.651 -0.75,-1.1406c-0.1562,-0.5 -0.2552,-1.1302 -0.2968,-1.8906c-0.0417,-0.7604 -0.0625,-1.6979 -0.0625,-2.8125c0,-1.1042 0.0208,-2.0365 0.0625,-2.7969c0.0416,-0.7708 0.1406,-1.401 0.2968,-1.8906c0.1563,-0.4896 0.4063,-0.8698 0.75,-1.1406c0.3438,-0.2813 0.8125,-0.474 1.4063,-0.5781c0.6042,-0.1042 1.375,-0.1563 2.3125,-0.1563c0.9375,0 1.7031,0.0521 2.2969,0.1563c0.6041,0.1041 1.0781,0.2969 1.4219,0.5781c0.3437,0.2708 0.5937,0.651 0.75,1.1406c0.1666,0.4896 0.2656,1.1198 0.2968,1.8907c0.0417,0.7604 0.0625,1.6927 0.0625,2.7968c0,1.1146 -0.0208,2.0521 -0.0625,2.8125c-0.0312,0.7605 -0.1302,1.3907 -0.2968,1.8907c-0.1563,0.4896 -0.4063,0.8698 -0.75,1.1406c-0.3438,0.2708 -0.8177,0.4635 -1.4219,0.5781c-0.5938,0.1042 -1.3594,0.1563 -2.2969,0.1563zM240,185.17965c0.6354,0 1.151,-0.0208 1.5469,-0.0625c0.3958,-0.0417 0.7083,-0.1406 0.9375,-0.2969c0.2291,-0.1666 0.3958,-0.4375 0.5,-0.8125c0.1145,-0.375 0.1875,-0.8854 0.2187,-1.5312c0.0313,-0.6459 0.0469,-1.474 0.0469,-2.4844c0,-1 -0.0156,-1.8229 -0.0469,-2.4687c-0.0312,-0.6563 -0.1042,-1.1667 -0.2187,-1.5313c-0.1042,-0.375 -0.2709,-0.6406 -0.5,-0.7969c-0.2292,-0.1666 -0.5417,-0.2708 -0.9375,-0.3125c-0.3959,-0.052 -0.9115,-0.0781 -1.5469,-0.0781c-0.6146,0 -1.125,0.0261 -1.5312,0.0781c-0.4063,0.0417 -0.724,0.1459 -0.9532,0.3125c-0.2291,0.1563 -0.401,0.4219 -0.5156,0.7969c-0.1042,0.3646 -0.1719,0.875 -0.2031,1.5313c-0.0208,0.6458 -0.0313,1.4687 -0.0313,2.4687c0,1.0104 0.0105,1.8386 0.0313,2.4844c0.0312,0.6458 0.099,1.1563 0.2031,1.5313c0.1146,0.375 0.2865,0.6458 0.5157,0.8125c0.2291,0.1562 0.5416,0.2552 0.9375,0.2968c0.4062,0.0417 0.9218,0.0625 1.5468,0.0625z"/></g></g></svg>