<svg version="1.1" xmlns="http://www.w3.org/2000/svg" xmlns:xlink="http://www.w3.org/1999/xlink" width="9.9688" height="13.1407" viewBox="0,0,9.9688,13.1407"><g transform="translate(-235.0156,-173.42965)"><g data-paper-data="{&quot;isPaintingLayer&quot;:true}" fill="#ff0000" fill-rule="nonzero" stroke="none" stroke-width="1" stroke-linecap="square" stroke-linejoin="miter" stroke-miterlimit="10" stroke-dasharray="" stroke-dashoffset="0" style="mix-blend-mode: normal"><path d="M240,186.57025c-1.0417,0 -1.8959,-0.0781 -2.5625,-0.2344c-0.6563,-0.1562 -1.1615,-0.3854 -1.5157,-0.6875c-0.3437,-0.3125 -0.5833,-0.6875 -0.7187,-1.125c-0.125,-0.4479 -0.1875,-0.9635 -0.1875,-1.5469c0,-0.7291 0.0885,-1.2968 0.2656,-1.7031c0.1875,-0.4062 0.4531,-0.7083 0.7969,-0.9062c0.3542,-0.1979 0.7812,-0.3542 1.2812,-0.4688v-0.0625c-0.7604,-0.1562 -1.3229,-0.4635 -1.6875,-0.9218c-0.3541,-0.4688 -0.5312,-1.1719 -0.5312,-2.1094c0,-0.5729 0.0729,-1.0677 0.2187,-1.4844c0.1459,-0.4271 0.3959,-0.7812 0.75,-1.0625c0.3646,-0.2812 0.8646,-0.4896 1.5,-0.625c0.6355,-0.1354 1.4323,-0.2031 2.3907,-0.2031c0.9583,0 1.7552,0.0677 2.3906,0.2031c0.6354,0.1354 1.1302,0.3438 1.4844,0.625c0.3645,0.2813 0.6198,0.6354 0.7656,1.0625c0.1562,0.4167 0.2344,0.9115 0.2344,1.4844c0,0.9375 -0.1823,1.6406 -0.5469,2.1094c-0.3542,0.4583 -0.9115,0.7656 -1.6719,0.9219v0.0625c0.5105,0.1145 0.9323,0.2708 1.2657,0.4687c0.3437,0.1979 0.6041,0.5 0.7812,0.9063c0.1875,0.4062 0.2813,0.9739 0.2813,1.7031c0,0.5833 -0.0677,1.099 -0.2032,1.5469c-0.125,0.4375 -0.3645,0.8125 -0.7187,1.125c-0.3542,0.3021 -0.8542,0.5312 -1.5,0.6875c-0.6458,0.1562 -1.5,0.2344 -2.5625,0.2344zM240,185.17965c0.8645,0 1.5364,-0.0521 2.0156,-0.1563c0.4896,-0.1042 0.8333,-0.3177 1.0312,-0.6406c0.2084,-0.3229 0.3125,-0.8073 0.3125,-1.4531c0,-0.5104 -0.052,-0.9167 -0.1562,-1.2188c-0.0938,-0.3125 -0.2656,-0.5468 -0.5156,-0.7031c-0.2396,-0.1667 -0.5782,-0.2708 -1.0157,-0.3125c-0.427,-0.0521 -0.9843,-0.0781 -1.6718,-0.0781c-0.6875,0 -1.25,0.026 -1.6875,0.0781c-0.4271,0.0417 -0.7656,0.1458 -1.0156,0.3125c-0.2396,0.1563 -0.4063,0.3906 -0.5,0.7031c-0.0938,0.3021 -0.1407,0.7084 -0.1407,1.2188c0,0.6458 0.099,1.1302 0.2969,1.4531c0.2083,0.3229 0.5521,0.5365 1.0313,0.6407c0.4895,0.1041 1.1614,0.1562 2.0156,0.1562zM240,179.22645c0.8854,0 1.5572,-0.0573 2.0156,-0.1718c0.4583,-0.1146 0.776,-0.3282 0.9531,-0.6407c0.1875,-0.3229 0.2813,-0.7864 0.2813,-1.3906c0,-0.5937 -0.0834,-1.0468 -0.25,-1.3593c-0.1667,-0.323 -0.4844,-0.5469 -0.9532,-0.6719c-0.4687,-0.125 -1.151,-0.1875 -2.0468,-0.1875c-0.8959,0 -1.5781,0.0625 -2.0469,0.1875c-0.4583,0.125 -0.7708,0.3489 -0.9375,0.6719c-0.1562,0.3125 -0.2344,0.7656 -0.2344,1.3593c0,0.6042 0.0834,1.0678 0.25,1.3907c0.1771,0.3125 0.5,0.526 0.9688,0.6406c0.4687,0.1146 1.1354,0.1719 2,0.1719z"/></g></g></svg>