<svg version="1.1" xmlns="http://www.w3.org/2000/svg" xmlns:xlink="http://www.w3.org/1999/xlink" width="2362.07987" height="1886.78331" viewBox="0,0,2362.07987,1886.78331"><g transform="translate(941.03993,763.39165)"><g data-paper-data="{&quot;isPaintingLayer&quot;:true}" fill-rule="nonzero" stroke-linejoin="miter" stroke-miterlimit="10" stroke-dasharray="" stroke-dashoffset="0" style="mix-blend-mode: normal"><path d="M-941.03993,1123.39165v-1886.78331h2362.07987v1886.78331z" fill="#000000" stroke="none" stroke-width="0" stroke-linecap="butt"/><g><path d="M-155.26512,-149.09221c90.5494,0 172.60215,36.83505 232.0199,96.34676c59.41457,59.50894 96.1911,141.69454 96.1911,232.39022c0,90.69565 -36.77647,172.88128 -96.1911,232.39022c-59.41777,59.51169 -141.4705,96.34676 -232.0199,96.34676c-90.54974,0 -172.60252,-36.83505 -232.0203,-96.34676c-59.41457,-59.50894 -96.1907,-141.69454 -96.1907,-232.39022c0,-90.69565 36.77611,-172.88128 96.1907,-232.39022c59.41777,-59.51169 141.4705,-96.34676 232.0203,-96.34676z" fill="#e866a0" stroke="none" stroke-width="0.94044" stroke-linecap="butt"/><path d="M-415.92001,413.30392l197.8673,-267.12026l211.35756,359.75802c0,0 -141.54058,31.22571 -254.96495,5.54943c-46.28093,-10.47678 -154.25991,-98.18722 -154.25991,-98.18722z" fill="#e3609a" stroke="none" stroke-width="2.6044" stroke-linecap="round"/><path d="M-390.36882,442.42792l37.56993,-68.30846l40.13098,68.30846z" fill="#f270aa" stroke="none" stroke-width="0.49451" stroke-linecap="round"/><path d="M-290.43128,508.67193l106.02966,-192.78188l113.25963,192.78188z" fill="#f270aa" stroke="none" stroke-width="1.3956" stroke-linecap="round"/><path d="M-469.84824,312.46015l44.21081,-80.38316l47.22523,80.38316z" fill="#f270aa" stroke="none" stroke-width="0.58192" stroke-linecap="round"/><path d="M184.11281,265.05985l-140.65662,219.14837l-151.45292,-218.36967z" fill="#de5b95" stroke="none" stroke-width="1.7269" stroke-linecap="round"/><path d="M-85.49836,334.46164l103.04525,-187.35521l110.07114,187.35521z" fill="#e3609a" stroke="none" stroke-width="1.35632" stroke-linecap="round"/><path d="M-77.70135,432.64697l69.23568,-125.88342l73.95643,125.88342z" fill="#f270aa" stroke="none" stroke-width="0.91131" stroke-linecap="round"/><path d="M108.70942,318.50567l76.53713,-139.15823v83.66905l-15.48147,53.40193z" fill="#fd7bb5" stroke="none" stroke-width="1.00741" stroke-linecap="round"/><path d="M71.64085,292.08525l44.21081,-80.38316l47.22523,80.38316z" fill="#f270aa" stroke="none" stroke-width="0.58192" stroke-linecap="round"/><path d="M-72.98021,-1.44742l-91.38941,164.00319l-95.73481,-165.04024z" fill="#ef6da7" stroke="none" stroke-width="1.19092" stroke-linecap="round"/><path d="M-76.81968,159.88251l59.18916,-107.61646l63.22469,107.61646z" fill="#f573ad" stroke="none" stroke-width="0.77907" stroke-linecap="round"/><path d="M-187.88299,-128.78789l-73.86943,132.56296l-77.38215,-133.40109z" fill="#ef6da7" stroke="none" stroke-width="0.96261" stroke-linecap="round"/><path d="M-9.80902,-143.93023l-73.86943,132.56296l-77.38215,-133.40109z" fill="#ef6da7" stroke="none" stroke-width="0.96261" stroke-linecap="round"/><path d="M183.61346,100.50933l-12.72086,123.52305l-48.67049,-125.88342z" fill="#de5b95" stroke="none" stroke-width="0.78768" stroke-linecap="round"/><path d="M-500.63195,140.92558l44.24879,-80.45219l47.26565,80.45219z" fill="#fd7bb5" stroke="none" stroke-width="0.58242" stroke-linecap="round"/><path d="M-472.38095,84.60307l56.05587,-101.91979l59.87807,101.91979z" fill="#f270aa" stroke="none" stroke-width="0.73783" stroke-linecap="round"/><path d="M5.30262,-39.45421l32.05973,-58.28985l34.24538,58.28985z" fill="#f876b0" stroke="none" stroke-width="0.42198" stroke-linecap="round"/><path d="M-175.76888,-179.92164c2.70746,0.07253 5.34583,0 8.05324,-0.28316c10.1909,-0.78393 20.45432,-0.35571 30.71777,0.28316c4.20622,-0.28316 8.40898,0.71483 12.61517,0.71483c43.04629,3.63295 85.30872,15.03602 124.29384,33.5668c67.70683,32.14397 124.86711,85.95105 160.92725,151.66185c25.23037,45.5431 40.19729,96.50109 43.83368,148.31211c0.56978,3.56389 0.14159,7.12778 0.49728,10.69163c0.85645,10.40502 0.64233,20.88253 -0.06907,31.28757c-0.21409,3.34977 0.14159,6.77206 -0.50074,10.12186c-2.92156,42.1899 -13.68226,83.81339 -31.07345,122.37031c-21.59393,47.46317 -53.59633,90.22631 -93.15132,124.22135c-34.56479,29.86478 -74.9037,53.16818 -118.16409,67.92101c-33.49773,11.5446 -68.8465,18.1026 -104.26774,19.24218c-8.97879,0.57327 -18.03007,0.64233 -27.01229,-0.14159c-3.84707,-0.35571 -7.69758,0.07253 -11.5446,-0.49728c-40.69452,-2.85249 -80.96436,-12.6877 -118.3817,-29.08088c-67.56183,-29.36058 -125.57505,-80.10448 -163.84878,-143.03875c-30.85936,-50.45728 -48.82034,-108.54303 -51.95601,-167.48176c0,-5.41833 -0.7114,-10.90575 -0.63887,-16.32062c-0.35915,-8.12579 0.63887,-16.25159 0.63887,-24.30485c2.85249,-49.74586 16.03749,-98.78031 38.77104,-143.1113c21.73901,-42.54555 51.95601,-80.67772 88.51689,-111.46455c42.1208,-35.77698 92.58152,-61.64963 146.17445,-74.76211c21.45236,-5.34583 43.47799,-8.55401 65.56923,-9.90774M-182.89665,-143.14664c-16.10656,1.28467 -32.0715,3.85048 -47.74979,7.62849l0.49728,0.06907c-1.35373,-0.06907 -2.70746,0.42824 -3.98867,0.85645c-4.77603,0.92552 -9.407,2.42082 -14.11393,3.77798c-18.95559,5.70152 -37.4864,13.11245 -55.01919,22.23629c-16.17909,8.33645 -31.57079,18.03007 -46.1129,28.93582c-3.27727,2.35178 -6.41292,4.84509 -9.54856,7.41093c-17.60529,14.39712 -33.78092,30.57271 -48.17803,48.17803c-2.56587,3.13565 -5.05918,6.27132 -7.41093,9.54856c-21.31077,28.58014 -38.34625,60.65161 -49.03449,94.71915c-1.07054,2.28265 -1.64035,4.84855 -2.35178,7.26937c-5.48742,17.74688 -8.90969,36.13613 -11.26147,54.52185c-0.28662,2.77996 -0.64233,5.48742 -0.78393,8.26739c-0.50074,2.49334 -0.28662,5.05918 -0.56978,7.62503c-1.13958,11.11988 -0.42824,22.30882 -0.64233,33.42523c-0.21409,2.14112 1.13958,4.20622 0.21409,6.20226c0.28662,2.92156 0.35571,5.77404 0.64233,8.62307c2.56587,31.21851 9.54856,62.07787 20.88253,91.29685c9.26538,23.80411 21.30737,46.54114 35.91855,67.42367c2.21016,3.27727 4.63097,6.41292 6.98618,9.62109c6.34039,8.62307 13.25404,16.74543 20.38179,24.7296c11.11641,11.68971 22.73354,22.87862 35.20715,33.06952c8.19483,6.48544 16.46225,12.89839 25.37191,18.38581l-0.14159,0.07253c11.11641,7.19681 22.59198,13.8964 34.42322,19.88451c14.03797,6.91366 28.43506,12.97089 43.33294,17.74688c2.84903,0.85299 5.55646,2.06513 8.55055,2.35178v0.42824c10.55004,2.84903 21.09665,5.70152 31.85741,7.62503c7.55602,1.21211 15.03945,2.56587 22.6645,3.42229c9.05128,1.13958 18.24416,1.77848 27.368,2.06513c11.61715,-0.14159 23.23428,0.35571 34.85149,-0.7114c6.91366,-0.78393 13.82734,-1.14307 20.7375,-2.21016c0.71483,-0.21409 1.71285,-0.07253 2.21016,-0.71483c0.50074,0.07253 1.49879,0.07253 1.99606,0.14503c7.98077,-1.21211 15.82335,-2.77996 23.66252,-4.48941v-0.21409c12.11443,-2.35178 23.87318,-6.20226 35.49379,-10.12186c5.48742,-2.13763 11.18891,-3.84707 16.32062,-6.55797c7.05525,-2.42082 13.60976,-5.91564 20.30932,-9.05128c13.54412,-6.84113 26.6566,-14.46618 39.12672,-23.16178c9.19634,-6.48544 18.17512,-13.32657 26.7291,-20.66847c10.25999,-8.62307 19.67042,-18.24416 29.00489,-27.86525l-0.06907,-0.14159c37.41381,-40.7671 64.07047,-91.36941 76.32996,-145.32146c2.06513,-8.40898 3.56389,-16.89046 4.70347,-25.44446c0.56978,-0.85299 0.42824,-1.92351 0.63887,-2.92156c1.14307,-8.97879 2.06859,-17.95754 2.56587,-27.00883c0.50074,-9.83521 0.71483,-19.81547 0.21409,-29.71975c-0.21409,-5.98814 -0.42824,-12.04539 -1.28118,-18.0335c-0.50074,-10.33249 -2.4968,-20.52341 -4.13369,-30.71777c-1.92351,-10.76073 -4.70347,-21.30737 -7.62503,-31.85741h-0.42824c-0.64233,-4.56188 -2.63837,-8.83716 -3.9196,-13.25404c-4.49281,-13.25753 -10.04933,-26.08683 -16.17909,-38.55691c-0.78393,-1.42626 -1.49879,-2.92499 -2.13763,-4.34781h-0.14503c-5.20081,-10.47754 -11.33054,-20.45432 -17.67438,-30.36208l-0.21409,0.21409c-0.14159,-0.28662 -0.42478,-0.99805 -0.56978,-1.28467c-5.48742,-8.26739 -11.40306,-16.24813 -17.60183,-23.94568c-1.85444,-1.92351 -3.34977,-4.06114 -5.13174,-6.05723c-8.62307,-10.33598 -18.31672,-19.81201 -27.93781,-29.14992c-7.55602,-6.77206 -15.25357,-13.32657 -23.30686,-19.3838h-0.56978c-0.21409,-0.28662 -0.64233,-0.71483 -0.85299,-0.92895c-12.47358,-9.47952 -25.65858,-17.88848 -39.3443,-25.37191c-15.10851,-8.40898 -31.00093,-15.39513 -47.32161,-21.16575c-9.62109,-3.2082 -19.31471,-6.55797 -29.22247,-8.62307c-4.84509,-1.64035 -9.90428,-2.14112 -14.8219,-3.49479c-10.33598,-1.85101 -20.59937,-3.63295 -31.07345,-4.55847c-2.35178,0.06907 -4.70347,-0.42824 -7.05525,-0.71483c-2.71092,-0.21409 -5.41833,-0.28316 -8.05324,-0.56978c-0.50074,0.07253 -1.42626,0.28662 -1.92697,0.35571c-1.63692,-0.42824 -3.27727,-0.63887 -4.98666,-0.56978c-12.90182,0.14159 -25.87268,-0.49728 -38.70197,1.13958z" fill="#ffffff" stroke="#ffffff" stroke-width="0.01935" stroke-linecap="butt"/><path d="M46.55613,59.63782c5.20081,-1.07054 10.54664,-1.64035 15.89241,-1.70945c7.34184,-0.35571 14.7528,0 22.09121,0.78393c1.85444,0.14159 3.70894,0.42824 5.49086,0.7114c-0.21409,8.76813 -0.14503,17.60529 -0.50074,26.36998c-0.14159,2.13763 -0.21409,4.27532 -0.14159,6.48544c-0.28662,16.96296 -0.78393,33.92597 -0.99805,50.95799c0,1.21211 0,2.35178 -0.07253,3.56389c-0.56978,16.24813 -0.49728,32.42719 -1.13958,48.6788c-12.40105,1.99606 -25.23037,2.35178 -37.63142,-0.21409c0,-4.34781 0,-8.6956 -0.21066,-13.04336c-0.35915,-17.961 -0.71483,-35.84951 -1.07054,-53.80702c-0.28662,-12.11786 -0.50074,-24.30485 -0.7114,-36.41929c-0.21409,-6.27481 -0.28662,-12.54613 -0.42824,-18.81748c-0.07253,-4.56188 0,-9.05128 -0.56978,-13.54069z" fill-opacity="0.14902" fill="#000000" stroke-opacity="0.14902" stroke="#000000" stroke-width="0.01935" stroke-linecap="butt"/><path d="M46.88053,54.84228c5.20081,-1.07054 10.54664,-1.64035 15.89241,-1.70945c7.34184,-0.35571 14.7528,0 22.09121,0.78393c1.85444,0.14159 3.70894,0.42824 5.49086,0.7114c-0.21409,8.76813 -0.14503,17.60529 -0.50074,26.36998c-0.14159,2.13763 -0.21409,4.27532 -0.14159,6.48544c-0.28662,16.96296 -0.78393,33.92597 -0.99805,50.95799c0,1.21211 0,2.35178 -0.07253,3.56389c-0.56978,16.24813 -0.49728,32.42719 -1.13958,48.6788c-12.40105,1.99606 -25.23037,2.35178 -37.63142,-0.21409c0,-4.34781 0,-8.6956 -0.21066,-13.04336c-0.35915,-17.961 -0.71483,-35.84951 -1.07054,-53.80702c-0.28662,-12.11786 -0.50074,-24.30485 -0.7114,-36.41929c-0.21409,-6.27481 -0.28662,-12.54613 -0.42824,-18.81748c-0.07253,-4.56188 0,-9.05128 -0.56978,-13.54069z" fill="#ffffff" stroke="#ffffff" stroke-width="0.01935" stroke-linecap="butt"/><path d="M-359.58791,114.3171c11.56023,-2.51249 23.69815,-2.72825 35.4045,-0.71687c7.18252,1.22144 14.14927,3.66086 20.46878,7.18252c5.81841,3.37549 11.13224,7.54093 15.58302,12.49633c9.47924,10.41185 14.43461,24.20271 16.59218,37.91705c2.43942,16.73483 1.64951,34.11346 -3.94972,50.13147c-2.44285,7.03636 -6.17681,13.50203 -10.63111,19.45962c-8.97813,10.91639 -21.90247,18.53047 -35.83604,21.25869c-12.13792,2.36985 -24.77689,2.36985 -36.84171,-0.14267c-0.57415,-0.14267 -1.07877,-0.21574 -1.57988,-0.35847c-2.73177,-0.72033 -5.3869,-1.51027 -7.97243,-2.51598c-10.1996,-4.0193 -19.46308,-10.55452 -25.92529,-19.45962c-9.0512,-11.92212 -13.50203,-26.71863 -14.79654,-41.51174c-1.43369,-17.52479 0.86303,-35.76643 8.7624,-51.70783c1.86868,-3.66435 4.09234,-7.18252 6.60834,-10.41537c8.33089,-10.91639 20.82725,-18.45743 34.11346,-21.61719M-358.87106,150.73073c-6.96675,7.6105 -8.7624,18.24167 -9.83768,28.15244c-0.57415,12.56593 -0.64727,25.63646 3.94972,37.55858c2.29675,6.24988 6.60483,11.99519 12.7817,14.65041c7.75672,3.23285 16.80446,3.23285 24.41851,-0.14267c5.88801,-2.58561 9.98384,-7.97243 12.28056,-13.78737c2.65865,-6.68144 4.02276,-13.86044 4.23853,-21.04296c0.57415,-5.24417 0.50111,-10.55804 0,-15.80224c-0.21571,-6.89369 -1.65297,-13.6447 -3.88006,-20.10686c-2.01138,-4.59694 -4.59347,-9.12083 -8.75894,-12.06482c-6.10721,-4.5239 -14.07623,-5.24417 -21.40488,-4.3812c-5.16765,0.78994 -10.41185,2.94399 -13.78737,6.96675z" fill-opacity="0.14902" fill="#000000" stroke-opacity="0.14902" stroke="#000000" stroke-width="0.01935" stroke-linecap="butt"/><path d="M-359.64383,109.50573c11.4721,-2.49334 23.51749,-2.70746 35.13462,-0.7114c7.12778,1.21211 14.04143,3.63295 20.31275,7.12778c5.77404,3.34977 11.04738,7.48346 15.4642,12.40105c9.407,10.33249 14.32456,24.01821 16.46568,37.62799c2.42082,16.60727 1.63692,33.85342 -3.9196,49.74932c-2.42425,6.98272 -6.12973,13.3991 -10.55004,19.31127c-8.90969,10.8332 -21.73552,18.38922 -35.56286,21.09665c-12.04539,2.35178 -24.58801,2.35178 -36.56088,-0.14159c-0.56978,-0.14159 -1.07054,-0.21409 -1.56785,-0.35571c-2.71092,-0.71483 -5.34583,-1.49879 -7.91167,-2.4968c-10.12186,-3.98867 -19.31471,-10.47405 -25.72765,-19.31127c-8.98222,-11.83125 -13.3991,-26.51498 -14.68373,-41.19531c-1.42277,-17.3912 0.85645,-35.49379 8.6956,-51.31368c1.85444,-3.63641 4.06114,-7.12778 6.55797,-10.33598c8.26739,-10.8332 20.66847,-18.31672 33.85342,-21.45236M-358.93242,145.6418c-6.91366,7.5525 -8.6956,18.1026 -9.76268,27.93781c-0.56978,12.47015 -0.64233,25.44103 3.9196,37.27228c2.27925,6.20226 6.55448,11.90377 12.68424,14.53874c7.69758,3.2082 16.67637,3.2082 24.23235,-0.14159c5.84314,-2.56587 9.90774,-7.91167 12.18696,-13.68226c2.63837,-6.6305 3.9921,-13.75475 4.20622,-20.88253c0.56978,-5.20421 0.49728,-10.47754 0,-15.68178c-0.21409,-6.84113 -1.64035,-13.54069 -3.85048,-19.95358c-1.99606,-4.56188 -4.55847,-9.05128 -8.69217,-11.97287c-6.06066,-4.48941 -13.96893,-5.20421 -21.2417,-4.34781c-5.12828,0.78393 -10.33249,2.92156 -13.68226,6.91366z" fill="#ffffff" stroke="#ffffff" stroke-width="0.01935" stroke-linecap="butt"/><path d="M-214.72235,116.93649c7.19681,-2.42082 14.8219,-3.49136 22.37788,-3.77798c10.8332,-0.28316 21.73901,0.71483 32.28559,3.34977c4.91762,1.07054 9.69362,2.63837 14.39712,4.27872c0.28316,2.42082 -0.42824,4.84509 -0.71483,7.26937c-1.28118,6.62704 -3.13565,13.25404 -6.05723,19.4563c-0.42824,0.7114 -0.78393,1.42626 -1.13958,2.13763c-1.64035,-0.7114 -3.34977,-1.35373 -5.05918,-1.92351c-8.98222,-3.2082 -18.45828,-5.41833 -28.08283,-4.99015c-1.85101,0 -3.70548,0.07253 -5.55646,0.35571c-3.63641,0.64233 -7.41439,1.78192 -10.12186,4.34781c-3.34977,3.34977 -3.41881,8.6956 -1.78192,12.82926c2.49334,4.27532 7.62503,5.55995 11.90377,7.34184c9.26538,3.06312 18.81397,5.13174 27.86525,8.90626c5.34583,2.28265 10.40502,5.48742 14.39712,9.76617c4.27532,4.70347 7.05525,10.6882 8.26739,16.96296c0.28316,1.70945 0.56978,3.41881 0.78393,5.12828c0.28316,5.41833 0.49728,10.97831 -0.85645,16.39315c-2.13763,9.90774 -8.05324,18.88652 -16.10656,25.01625c-4.77603,3.77798 -10.33249,6.55797 -15.96494,8.83716c-6.05723,2.13763 -12.32855,3.56389 -18.6724,4.34781c-1.13958,0.14159 -2.27925,0.21409 -3.34977,0.35571c-8.76467,0.21409 -17.53276,0.28662 -26.29743,-0.92552c-5.91564,-0.7114 -11.68971,-2.28265 -17.46029,-3.77798c-1.92697,-0.7114 -3.9921,-1.28118 -5.91564,-1.99606c-0.56978,-0.21409 -1.56785,-0.56978 -2.06859,-0.78393c0,-1.28118 0.07253,-2.56587 0.14503,-3.84707c1.20871,-9.19634 3.84707,-18.1026 7.76668,-26.51155c14.89442,5.98468 31.57419,9.62109 47.39414,5.62899c5.20421,-1.64035 10.90575,-4.63443 12.6877,-10.12186c0.85299,-4.06114 0.63887,-8.76467 -2.21016,-12.04191c-2.92156,-2.77996 -6.69953,-4.20622 -10.40502,-5.55995c-13.32657,-4.48941 -27.93781,-6.41635 -39.41334,-15.10851c-4.13369,-3.2807 -7.98077,-7.26937 -9.9768,-12.33199c-3.56389,-8.90626 -3.77798,-18.95559 -2.06859,-28.36602c0.21409,-1.06711 0.42824,-2.06513 0.71483,-3.13565c1.21211,-3.49136 2.63494,-6.91366 4.70347,-9.9768c5.4149,-8.48151 14.25206,-14.1105 23.59002,-17.53276z" fill-opacity="0.14902" fill="#000000" stroke-opacity="0.14902" stroke="#000000" stroke-width="0.01935" stroke-linecap="butt"/><path d="M-215.25128,111.28764c7.19681,-2.42082 14.8219,-3.49136 22.37788,-3.77798c10.8332,-0.28316 21.73901,0.71483 32.28559,3.34977c4.91762,1.07054 9.69362,2.63837 14.39712,4.27872c0.28316,2.42082 -0.42824,4.84509 -0.71483,7.26937c-1.28118,6.62704 -3.13565,13.25404 -6.05723,19.4563c-0.42824,0.7114 -0.78393,1.42626 -1.13958,2.13763c-1.64035,-0.7114 -3.34977,-1.35373 -5.05918,-1.92351c-8.98222,-3.2082 -18.45828,-5.41833 -28.08283,-4.99015c-1.85101,0 -3.70548,0.07253 -5.55646,0.35571c-3.63641,0.64233 -7.41439,1.78192 -10.12186,4.34781c-3.34977,3.34977 -3.41881,8.6956 -1.78192,12.82926c2.49334,4.27532 7.62503,5.55995 11.90377,7.34184c9.26538,3.06312 18.81397,5.13174 27.86525,8.90626c5.34583,2.28265 10.40502,5.48742 14.39712,9.76617c4.27532,4.70347 7.05525,10.6882 8.26739,16.96296c0.28316,1.70945 0.56978,3.41881 0.78393,5.12828c0.28316,5.41833 0.49728,10.97831 -0.85645,16.39315c-2.13763,9.90774 -8.05324,18.88652 -16.10656,25.01625c-4.77603,3.77798 -10.33249,6.55797 -15.96494,8.83716c-6.05723,2.13763 -12.32855,3.56389 -18.6724,4.34781c-1.13958,0.14159 -2.27925,0.21409 -3.34977,0.35571c-8.76467,0.21409 -17.53276,0.28662 -26.29743,-0.92552c-5.91564,-0.7114 -11.68971,-2.28265 -17.46029,-3.77798c-1.92697,-0.7114 -3.9921,-1.28118 -5.91564,-1.99606c-0.56978,-0.21409 -1.56785,-0.56978 -2.06859,-0.78393c0,-1.28118 0.07253,-2.56587 0.14503,-3.84707c1.20871,-9.19634 3.84707,-18.1026 7.76668,-26.51155c14.89442,5.98468 31.57419,9.62109 47.39414,5.62899c5.20421,-1.64035 10.90575,-4.63443 12.6877,-10.12186c0.85299,-4.06114 0.63887,-8.76467 -2.21016,-12.04191c-2.92156,-2.77996 -6.69953,-4.20622 -10.40502,-5.55995c-13.32657,-4.48941 -27.93781,-6.41635 -39.41334,-15.10851c-4.13369,-3.2807 -7.98077,-7.26937 -9.9768,-12.33199c-3.56389,-8.90626 -3.77798,-18.95559 -2.06859,-28.36602c0.21409,-1.06711 0.42824,-2.06513 0.71483,-3.13565c1.21211,-3.49136 2.63494,-6.91366 4.70347,-9.9768c5.4149,-8.48151 14.25206,-14.1105 23.59002,-17.53276z" fill="#ffffff" stroke="#ffffff" stroke-width="0.01935" stroke-linecap="butt"/><path d="M-115.15851,116.50828c3.70894,-0.78393 7.48346,-1.13958 11.26147,-1.42277c7.34184,-0.56978 14.61124,-0.35915 21.88058,0.42478c2.21016,0.21409 4.42031,0.57327 6.62704,0.92895c0,8.48151 0,16.95953 0,25.44103c0,1.92697 0,3.85048 0,5.77404c0,16.60727 0,33.21111 0,49.81838c0,1.92351 0.14503,3.84707 0.35571,5.77404c0.78736,7.48003 2.4968,15.53678 8.05673,20.95165c3.63295,3.70548 8.69217,5.34583 13.60976,6.20226c8.12579,0.78393 16.46568,0.49728 24.44647,-1.35719c0.35571,-7.5525 0,-15.17758 0.21409,-22.8061c0,-0.99805 0,-1.99606 0,-2.99062c-0.07253,-17.31867 -0.14159,-34.63737 0,-51.88695c0.07253,-1.28118 0,-2.49334 0,-3.70548c-0.21409,-10.33249 0.07253,-20.74099 -0.21409,-31.07345c11.33397,-2.27925 22.95115,-2.21016 34.35415,-0.92552c1.78192,0.14159 3.49136,0.56978 5.27328,0.85299c-0.07253,10.55004 -0.07253,21.02415 0,31.57419c0,5.91564 0,11.75875 -0.07253,17.67438c0,12.61517 0,25.29944 0.07253,37.91458c0,5.91564 0,11.76221 0,17.60529c-0.07253,11.11641 -0.07253,22.23629 -0.07253,33.28361c-4.84509,1.70945 -9.83521,2.84903 -14.7528,4.27532c-7.5525,1.4953 -15.18104,3.2082 -22.87862,3.84707c-1.35373,0.14503 -2.77996,0.21409 -4.13369,0.35915c-14.03797,0.85299 -28.22094,0.49728 -41.97578,-2.21016c-11.11988,-2.42425 -21.9531,-7.98417 -28.86676,-17.24614c-2.84903,-3.77798 -5.13174,-7.91167 -6.98272,-12.19042c-3.77798,-8.90626 -5.27328,-18.52735 -5.77404,-28.07943c-0.56978,-7.48346 -0.28316,-14.89442 -0.42824,-22.37788c0,-18.17512 -0.06907,-36.34679 0.07253,-54.52185c0,-3.27727 0,-6.55797 -0.07253,-9.90774z" fill-opacity="0.14902" fill="#000000" stroke-opacity="0.14902" stroke="#000000" stroke-width="0.01935" stroke-linecap="butt"/><path d="M-114.83412,110.85943c3.70894,-0.78393 7.48346,-1.13958 11.26147,-1.42277c7.34184,-0.56978 14.61124,-0.35915 21.88058,0.42478c2.21016,0.21409 4.42031,0.57327 6.62704,0.92895c0,8.48151 0,16.95953 0,25.44103c0,1.92697 0,3.85048 0,5.77404c0,16.60727 0,33.21111 0,49.81838c0,1.92351 0.14503,3.84707 0.35571,5.77404c0.78736,7.48003 2.4968,15.53678 8.05673,20.95165c3.63295,3.70548 8.69217,5.34583 13.60976,6.20226c8.12579,0.78393 16.46568,0.49728 24.44647,-1.35719c0.35571,-7.5525 0,-15.17758 0.21409,-22.8061c0,-0.99805 0,-1.99606 0,-2.99062c-0.07253,-17.31867 -0.14159,-34.63737 0,-51.88695c0.07253,-1.28118 0,-2.49334 0,-3.70548c-0.21409,-10.33249 0.07253,-20.74099 -0.21409,-31.07345c11.33397,-2.27925 22.95115,-2.21016 34.35415,-0.92552c1.78192,0.14159 3.49136,0.56978 5.27328,0.85299c-0.07253,10.55004 -0.07253,21.02415 0,31.57419c0,5.91564 0,11.75875 -0.07253,17.67438c0,12.61517 0,25.29944 0.07253,37.91458c0,5.91564 0,11.76221 0,17.60529c-0.07253,11.11641 -0.07253,22.23629 -0.07253,33.28361c-4.84509,1.70945 -9.83521,2.84903 -14.7528,4.27532c-7.5525,1.4953 -15.18104,3.2082 -22.87862,3.84707c-1.35373,0.14503 -2.77996,0.21409 -4.13369,0.35915c-14.03797,0.85299 -28.22094,0.49728 -41.97578,-2.21016c-11.11988,-2.42425 -21.9531,-7.98417 -28.86676,-17.24614c-2.84903,-3.77798 -5.13174,-7.91167 -6.98272,-12.19042c-3.77798,-8.90626 -5.27328,-18.52735 -5.77404,-28.07943c-0.56978,-7.48346 -0.28316,-14.89442 -0.42824,-22.37788c0,-18.17512 -0.06907,-36.34679 0.07253,-54.52185c0,-3.27727 0,-6.55797 -0.07253,-9.90774z" fill="#ffffff" stroke="#ffffff" stroke-width="0.01935" stroke-linecap="butt"/><path d="M47.97893,218.28579c13.54069,-2.13763 27.50957,-2.21016 41.05369,0.06907c1.63692,11.04738 2.27925,22.30882 0.92552,33.42866c-0.28662,2.49334 -0.64233,5.05918 -0.99805,7.5525c-2.13763,0.28662 -4.27532,0.56978 -6.41292,0.85645c-11.47556,1.28118 -23.02019,0.92552 -34.35415,-0.85645c-0.14159,-0.28316 -0.35571,-0.92552 -0.49728,-1.21211c-1.92351,-13.18498 -1.92351,-26.65314 0.28316,-39.83815z" fill-opacity="0.14902" fill="#000000" stroke-opacity="0.14902" stroke="#000000" stroke-width="0.01935" stroke-linecap="butt"/><path d="M48.30333,213.49025c13.54069,-2.13763 27.50957,-2.21016 41.05369,0.06907c1.63692,11.04738 2.27925,22.30882 0.92552,33.42866c-0.28662,2.49334 -0.64233,5.05918 -0.99805,7.5525c-2.13763,0.28662 -4.27532,0.56978 -6.41292,0.85645c-11.47556,1.28118 -23.02019,0.92552 -34.35415,-0.85645c-0.14159,-0.28316 -0.35571,-0.92552 -0.49728,-1.21211c-1.92351,-13.18498 -1.92351,-26.65314 0.28316,-39.83815z" fill="#ffffff" stroke="#ffffff" stroke-width="0.01935" stroke-linecap="butt"/><path d="M-275.11902,226.53369c0.35571,0.28316 0.35571,0.28316 0,0z" fill="#ef61a0" stroke="#ef61a0" stroke-width="0.01935" stroke-linecap="butt"/><path d="M-176.9503,383.02991l37.56993,-68.30846l40.13098,68.30846z" fill="#e6649e" stroke="none" stroke-width="0.49451" stroke-linecap="round"/><path d="M-306.62449,349.70483l37.56993,-68.30846l40.13098,68.30846z" fill="#de5b95" stroke="none" stroke-width="0.49451" stroke-linecap="round"/><path d="M-114.02874,28.05614l44.84483,-81.5359l47.90245,81.5359z" fill="#f573ad" stroke="none" stroke-width="0.59026" stroke-linecap="round"/><path d="M-88.45649,60.34831l32.05973,-58.28985l34.24538,58.28985z" fill="#f876b0" stroke="none" stroke-width="0.42198" stroke-linecap="round"/><path d="M-213.31328,-34.44998l44.84483,-81.5359l47.90245,81.5359z" fill="#ff7db7" stroke="none" stroke-width="0.59026" stroke-linecap="round"/><path d="M-451.92419,107.31418l32.05973,-58.28985l34.24538,58.28985z" fill="#f573ad" stroke="none" stroke-width="0.42198" stroke-linecap="round"/></g><text transform="translate(283.18318,143.53191) scale(6.55904,6.55904)" font-size="40" xml:space="preserve" fill="#ffffff" fill-rule="nonzero" stroke="none" stroke-width="1" stroke-linecap="butt" stroke-linejoin="miter" stroke-miterlimit="10" stroke-dasharray="" stroke-dashoffset="0" font-family="Sans Serif" font-weight="normal" text-anchor="start" style="mix-blend-mode: normal"><tspan x="0" dy="0">Mania</tspan><tspan x="0" dy="46.15px">    4k</tspan></text></g></g></svg>