<svg version="1.1" xmlns="http://www.w3.org/2000/svg" xmlns:xlink="http://www.w3.org/1999/xlink" width="8.7031" height="13.1407" viewBox="0,0,8.7031,13.1407"><g transform="translate(-235.64845,-173.42965)"><g data-paper-data="{&quot;isPaintingLayer&quot;:true}" fill="#ff0000" fill-rule="nonzero" stroke="none" stroke-width="1" stroke-linecap="square" stroke-linejoin="miter" stroke-miterlimit="10" stroke-dasharray="" stroke-dashoffset="0" style="mix-blend-mode: normal"><path d="M239.44535,186.57025c-0.3855,0 -0.8125,-0.0156 -1.2813,-0.0469c-0.4583,-0.0312 -0.9115,-0.0729 -1.3594,-0.125c-0.4375,-0.052 -0.8229,-0.1041 -1.1562,-0.1562v-1.2813c0.4166,0.0313 0.8541,0.0677 1.3125,0.1094c0.4687,0.0417 0.9062,0.0729 1.3125,0.0938c0.4062,0.0104 0.7604,0.0156 1.0625,0.0156c0.7291,0 1.3489,-0.0469 1.8594,-0.1406c0.5104,-0.0938 0.8906,-0.2969 1.1406,-0.6094c0.2604,-0.3229 0.3906,-0.8229 0.3906,-1.5c0,-0.5729 -0.0833,-1.0312 -0.25,-1.375c-0.1562,-0.3437 -0.4167,-0.5833 -0.7812,-0.7187c-0.3542,-0.1459 -0.8282,-0.2188 -1.4219,-0.2188h-2.4063v-1.4062h2.4063c0.4167,0 0.7969,-0.0521 1.1406,-0.1563c0.3542,-0.1146 0.6354,-0.3281 0.8438,-0.6406c0.2187,-0.3125 0.3281,-0.7761 0.3281,-1.3906c0,-0.6667 -0.1146,-1.1563 -0.3438,-1.4688c-0.2187,-0.3125 -0.5833,-0.5156 -1.0937,-0.6094c-0.5,-0.0937 -1.1667,-0.1406 -2,-0.1406c-0.3333,0 -0.7083,0.0157 -1.125,0.0469c-0.4063,0.0208 -0.8125,0.0469 -1.2188,0.0781c-0.4062,0.0313 -0.7708,0.073 -1.0937,0.125v-1.3125c0.3437,-0.0625 0.7292,-0.1145 1.1562,-0.1562c0.4375,-0.0417 0.8855,-0.0781 1.3438,-0.1094c0.4687,-0.0312 0.8854,-0.0469 1.25,-0.0469c0.9167,0 1.6771,0.0678 2.2812,0.2032c0.6146,0.1354 1.099,0.3437 1.4532,0.625c0.3646,0.2708 0.625,0.6198 0.7812,1.0469c0.1563,0.4166 0.2344,0.9166 0.2344,1.5c0,0.9375 -0.1927,1.6354 -0.5781,2.0937c-0.375,0.4583 -0.9115,0.7708 -1.6094,0.9375v0.0625c0.4688,0.0938 0.875,0.2448 1.2188,0.4531c0.3541,0.2084 0.625,0.5261 0.8125,0.9532c0.1979,0.4166 0.2968,0.9739 0.2968,1.6718c0,0.5521 -0.0677,1.0521 -0.2031,1.5c-0.125,0.4375 -0.3646,0.8125 -0.7187,1.125c-0.3438,0.3021 -0.8386,0.5417 -1.4844,0.7188c-0.6354,0.1667 -1.4687,0.25 -2.5,0.25z"/></g></g></svg>