<svg version="1.1" xmlns="http://www.w3.org/2000/svg" xmlns:xlink="http://www.w3.org/1999/xlink" width="9.7032" height="13.1407" viewBox="0,0,9.7032,13.1407"><g transform="translate(-235.1484,-173.42965)"><g data-paper-data="{&quot;isPaintingLayer&quot;:true}" fill="#ff0000" fill-rule="nonzero" stroke="none" stroke-width="1" stroke-linecap="square" stroke-linejoin="miter" stroke-miterlimit="10" stroke-dasharray="" stroke-dashoffset="0" style="mix-blend-mode: normal"><path d="M240.1952,186.57025c-0.8541,0 -1.5833,-0.0417 -2.1875,-0.125c-0.6041,-0.0833 -1.1041,-0.2552 -1.5,-0.5156c-0.3854,-0.2709 -0.6823,-0.6875 -0.8906,-1.25c-0.125,-0.2917 -0.2187,-0.6459 -0.2812,-1.0625c-0.0625,-0.4271 -0.1094,-0.9271 -0.1407,-1.5c-0.0312,-0.5834 -0.0468,-1.2448 -0.0468,-1.9844c0,-0.6875 0.0156,-1.3125 0.0468,-1.875c0.0313,-0.5625 0.0782,-1.0573 0.1407,-1.4844c0.0729,-0.4375 0.1666,-0.8229 0.2812,-1.1562c0.2084,-0.5834 0.5104,-1.0313 0.9063,-1.3438c0.3958,-0.3125 0.9062,-0.5312 1.5312,-0.6562c0.625,-0.125 1.3854,-0.1875 2.2813,-0.1875c0.3229,0 0.6979,0.0156 1.125,0.0469c0.4271,0.0312 0.875,0.0729 1.3437,0.125c0.4688,0.0416 0.9115,0.0937 1.3282,0.1562v1.2969c-0.3855,-0.0521 -0.7917,-0.0938 -1.2188,-0.125c-0.4271,-0.0313 -0.8385,-0.0573 -1.2344,-0.0781c-0.3854,-0.0313 -0.7239,-0.0469 -1.0156,-0.0469c-0.8646,0 -1.5573,0.0625 -2.0781,0.1875c-0.5208,0.125 -0.9115,0.3594 -1.1719,0.7031c-0.2604,0.3334 -0.4323,0.8229 -0.5156,1.4688c-0.0833,0.6354 -0.125,1.4739 -0.125,2.5156h0.1094c0.1354,-0.1458 0.3281,-0.2917 0.5781,-0.4375c0.25,-0.1458 0.6146,-0.2656 1.0938,-0.3594c0.4791,-0.0937 1.1198,-0.1406 1.9218,-0.1406c0.7813,0 1.4532,0.0469 2.0157,0.1406c0.5625,0.0834 1.0156,0.25 1.3593,0.5c0.3542,0.25 0.6094,0.6094 0.7657,1.0782c0.1562,0.4687 0.2344,1.0989 0.2344,1.8906c0,0.8229 -0.0625,1.5104 -0.1875,2.0625c-0.1146,0.5417 -0.3438,0.9688 -0.6875,1.2813c-0.3334,0.302 -0.8073,0.526 -1.4219,0.6718c-0.6042,0.1355 -1.3906,0.2032 -2.3594,0.2032zM240.0546,185.17965c0.6458,0 1.1771,-0.0209 1.5938,-0.0625c0.427,-0.0521 0.7552,-0.1615 0.9843,-0.3282c0.2396,-0.177 0.4011,-0.427 0.4844,-0.75c0.0938,-0.3229 0.1406,-0.7708 0.1406,-1.3437c0,-0.5938 -0.0468,-1.0625 -0.1406,-1.4063c-0.0833,-0.3541 -0.2396,-0.6145 -0.4687,-0.7812c-0.2188,-0.1667 -0.5417,-0.2708 -0.9688,-0.3125c-0.4166,-0.0417 -0.9583,-0.0625 -1.625,-0.0625c-0.7396,0 -1.3281,0.0365 -1.7656,0.1094c-0.4271,0.0729 -0.7448,0.1927 -0.9531,0.3594c-0.2083,0.1666 -0.349,0.3802 -0.4219,0.6406c-0.0625,0.2604 -0.0937,0.5781 -0.0937,0.9531c0,0.6875 0.052,1.2292 0.1562,1.625c0.1146,0.3958 0.2917,0.6927 0.5313,0.8906c0.2395,0.198 0.5625,0.3282 0.9687,0.3907c0.4167,0.0521 0.9427,0.0781 1.5781,0.0781z"/></g></g></svg>