<svg version="1.1" xmlns="http://www.w3.org/2000/svg" xmlns:xlink="http://www.w3.org/1999/xlink" width="9.6876" height="13.1407" viewBox="0,0,9.6876,13.1407"><g transform="translate(-235.1562,-173.42965)"><g data-paper-data="{&quot;isPaintingLayer&quot;:true}" fill="#ff0000" fill-rule="nonzero" stroke="none" stroke-width="1" stroke-linecap="square" stroke-linejoin="miter" stroke-miterlimit="10" stroke-dasharray="" stroke-dashoffset="0" style="mix-blend-mode: normal"><path d="M239.6718,186.57025c-0.3333,0 -0.7187,-0.0156 -1.1562,-0.0469c-0.4375,-0.0312 -0.8854,-0.0729 -1.3438,-0.125c-0.4583,-0.0521 -0.8958,-0.1094 -1.3125,-0.1719v-1.2812c0.3855,0.0312 0.7865,0.0677 1.2032,0.1094c0.427,0.0312 0.8385,0.0625 1.2343,0.0937c0.4063,0.0209 0.75,0.0313 1.0313,0.0313c0.875,0 1.5677,-0.0625 2.0781,-0.1875c0.5208,-0.125 0.9115,-0.3542 1.1719,-0.6875c0.2604,-0.3334 0.4323,-0.8177 0.5156,-1.4531c0.0834,-0.6459 0.125,-1.4896 0.125,-2.5313h-0.125c-0.1146,0.1458 -0.2968,0.2917 -0.5468,0.4375c-0.25,0.1354 -0.6198,0.25 -1.1094,0.3438c-0.4792,0.0937 -1.125,0.1406 -1.9375,0.1406c-0.7813,0 -1.4479,-0.0417 -2,-0.125c-0.5521,-0.0833 -1.0052,-0.25 -1.3594,-0.5c-0.3437,-0.25 -0.5937,-0.6094 -0.75,-1.0781c-0.1562,-0.4792 -0.2344,-1.1094 -0.2344,-1.8907c0,-0.8229 0.0573,-1.5052 0.1719,-2.0468c0.125,-0.5521 0.349,-0.9844 0.6719,-1.2969c0.3333,-0.3125 0.8021,-0.5365 1.4062,-0.6719c0.6146,-0.1354 1.4115,-0.2031 2.3907,-0.2031c0.8958,0 1.6562,0.0469 2.2812,0.1406c0.625,0.0834 1.1302,0.2657 1.5156,0.5469c0.3855,0.2709 0.6667,0.7084 0.8438,1.3125c0.1667,0.4688 0.276,1.0677 0.3281,1.7969c0.0521,0.7292 0.0782,1.6094 0.0782,2.6406c0,0.7188 -0.0157,1.3698 -0.0469,1.9532c-0.0313,0.5833 -0.0886,1.1041 -0.1719,1.5625c-0.0833,0.4583 -0.1979,0.8645 -0.3437,1.2187c-0.2188,0.5104 -0.5261,0.9115 -0.9219,1.2031c-0.3854,0.2813 -0.8802,0.4792 -1.4844,0.5938c-0.6041,0.1146 -1.3385,0.1719 -2.2031,0.1719zM239.9531,179.86715c0.7292,0 1.3125,-0.0365 1.75,-0.1094c0.4375,-0.0729 0.7552,-0.1927 0.9531,-0.3594c0.2083,-0.177 0.3438,-0.3958 0.4063,-0.6562c0.0625,-0.2604 0.0937,-0.5781 0.0937,-0.9531c0,-0.6771 -0.0521,-1.2136 -0.1562,-1.6094c-0.1042,-0.4063 -0.2761,-0.7083 -0.5157,-0.9063c-0.2395,-0.1979 -0.5677,-0.3229 -0.9843,-0.375c-0.4167,-0.0625 -0.9323,-0.0937 -1.5469,-0.0937c-0.6667,0 -1.2083,0.026 -1.625,0.0781c-0.4167,0.0521 -0.7448,0.1615 -0.9844,0.3281c-0.2291,0.1667 -0.3906,0.4115 -0.4843,0.7344c-0.0938,0.3229 -0.1407,0.7709 -0.1407,1.3438c0,0.5937 0.0469,1.0677 0.1407,1.4219c0.0937,0.3437 0.25,0.6041 0.4687,0.7812c0.2292,0.1667 0.5521,0.2708 0.9688,0.3125c0.4271,0.0417 0.9791,0.0625 1.6562,0.0625z"/></g></g></svg>