<svg version="1.1" xmlns="http://www.w3.org/2000/svg" xmlns:xlink="http://www.w3.org/1999/xlink" width="201.70238" height="473.40954" viewBox="0,0,201.70238,473.40954"><g transform="translate(-139.39286,168.20477)"><g data-paper-data="{&quot;isPaintingLayer&quot;:true}" fill="none" fill-rule="nonzero" stroke="#ffffff" stroke-width="1.5" stroke-linejoin="miter" stroke-miterlimit="10" stroke-dasharray="" stroke-dashoffset="0" style="mix-blend-mode: normal"><g stroke-linecap="butt"><path d="M240.12071,180c0,-13.80712 11.19288,-25 25,-25c13.80712,0 25,11.19288 25,25c0,13.80712 -11.19288,25 -25,25c-13.80712,0 -25,-11.19288 -25,-25z"/><path d="M290.13889,180c0,-13.80712 11.19288,-25 25,-25c13.80712,0 25,11.19288 25,25c0,13.80712 -11.19288,25 -25,25c-13.80712,0 -25,-11.19288 -25,-25z"/></g><g stroke-linecap="butt"><path d="M140.15758,180c0,-13.80712 11.19288,-25 25,-25c13.80712,0 25,11.19288 25,25c0,13.80712 -11.19288,25 -25,25c-13.80712,0 -25,-11.19288 -25,-25z"/><path d="M190.17576,180c0,-13.80712 11.19288,-25 25,-25c13.80712,0 25,11.19288 25,25c0,13.80712 -11.19288,25 -25,25c-13.80712,0 -25,-11.19288 -25,-25z"/></g><path d="M240,-167.45477v468.90953" stroke-linecap="round"/><path d="M290,-165.45476v468.90953" stroke-linecap="round"/><path d="M190.16667,-164.45476v468.90953" stroke-linecap="round"/><path d="M340.34524,304.45477v-468.90953" stroke-linecap="round"/><path d="M140.14286,-165.12143v468.90953" stroke-linecap="round"/></g></g></svg>