<svg version="1.1" xmlns="http://www.w3.org/2000/svg" xmlns:xlink="http://www.w3.org/1999/xlink" width="8.7344" height="12.9844" viewBox="0,0,8.7344,12.9844"><g transform="translate(-235.6328,-173.5078)"><g data-paper-data="{&quot;isPaintingLayer&quot;:true}" fill="#ff0000" fill-rule="nonzero" stroke="none" stroke-width="1" stroke-linecap="square" stroke-linejoin="miter" stroke-miterlimit="10" stroke-dasharray="" stroke-dashoffset="0" style="mix-blend-mode: normal"><path d="M239.461,186.4921c-0.3855,0 -0.8125,-0.0156 -1.2813,-0.0469c-0.4583,-0.0312 -0.9115,-0.0677 -1.3594,-0.1093c-0.4479,-0.0521 -0.8437,-0.1094 -1.1875,-0.1719v-1.2813c0.4375,0.0313 0.8855,0.0677 1.3438,0.1094c0.4583,0.0417 0.8906,0.0729 1.2969,0.0938c0.4166,0.0104 0.776,0.0156 1.0781,0.0156c0.6875,0 1.25,-0.0365 1.6875,-0.1094c0.4479,-0.0833 0.7917,-0.2187 1.0312,-0.4062c0.25,-0.1979 0.4219,-0.4636 0.5157,-0.7969c0.1041,-0.3333 0.1562,-0.7448 0.1562,-1.2344c0,-0.552 -0.0521,-0.9895 -0.1562,-1.3125c-0.1042,-0.3333 -0.2917,-0.5781 -0.5625,-0.7343c-0.2709,-0.1667 -0.6459,-0.2761 -1.125,-0.3282c-0.4688,-0.0625 -1.0729,-0.0937 -1.8125,-0.0937c-0.25,0 -0.5625,0.0104 -0.9375,0.0312c-0.3646,0.0209 -0.75,0.0521 -1.1563,0.0938c-0.4062,0.0312 -0.8125,0.0729 -1.2187,0.125v-6.8281h7.6406v1.3906h-6.1562v4c0.25,-0.0417 0.5364,-0.0781 0.8593,-0.1094c0.3334,-0.0312 0.6719,-0.052 1.0157,-0.0625c0.3437,-0.0104 0.6614,-0.0156 0.9531,-0.0156c0.9271,0 1.6667,0.0729 2.2187,0.2188c0.5625,0.1458 0.9896,0.3802 1.2813,0.7031c0.2917,0.3125 0.4948,0.6979 0.6094,1.1562c0.1145,0.448 0.1718,0.974 0.1718,1.5782c0,0.7604 -0.0729,1.4062 -0.2187,1.9375c-0.1458,0.5208 -0.3958,0.9427 -0.75,1.2656c-0.3542,0.3125 -0.849,0.5469 -1.4844,0.7031c-0.6354,0.1459 -1.4531,0.2188 -2.4531,0.2188z"/></g></g></svg>